<svg width="63" height="63" viewBox="0 0 63 63" fill="none" xmlns="http://www.w3.org/2000/svg">
<path d="M45.5296 38.8909L45.5296 19.4454C45.5294 18.7162 45.2397 18.0169 44.7241 17.5013C44.2085 16.9857 43.5092 16.696 42.78 16.6959L23.3345 16.6959C22.6053 16.6959 21.9059 16.9855 21.3903 17.5012C21.135 17.7565 20.9324 18.0596 20.7943 18.3932C20.6561 18.7268 20.585 19.0844 20.585 19.4454C20.585 19.8065 20.6561 20.1641 20.7943 20.4977C20.9324 20.8313 21.135 21.1344 21.3903 21.3897C21.9059 21.9053 22.6053 22.195 23.3345 22.195L36.1413 22.195L17.5009 40.8354C16.9852 41.3511 16.6955 42.0506 16.6955 42.78C16.6955 43.5093 16.9852 44.2088 17.5009 44.7245C18.0166 45.2402 18.7161 45.53 19.4455 45.53C20.1748 45.53 20.8743 45.2402 21.39 44.7245L40.0304 26.0841L40.0304 38.8909C40.0294 39.2522 40.0998 39.6103 40.2376 39.9443C40.3754 40.2784 40.5779 40.5819 40.8334 40.8374C41.0889 41.093 41.3925 41.2955 41.7265 41.4333C42.0606 41.5711 42.4186 41.6415 42.78 41.6405C43.5092 41.6404 44.2085 41.3506 44.7241 40.835C45.2397 40.3194 45.5294 39.6201 45.5296 38.8909Z" fill="black"/>
</svg>
