<svg width="36" height="36" viewBox="0 0 36 36" fill="none" xmlns="http://www.w3.org/2000/svg">
<g clip-path="url(#clip0_626_248)">
<path fill-rule="evenodd" clip-rule="evenodd" d="M13.8471 13.4796L17.4574 10.2139C18.2877 9.4643 19.2711 8.90425 20.3395 8.57257C21.4078 8.24088 22.5354 8.1455 23.6443 8.29304L28.422 8.92561L35.0511 5.34361C35.1491 5.2906 35.2591 5.26394 35.3705 5.26625C35.4818 5.26856 35.5907 5.29977 35.6864 5.3568C35.782 5.41384 35.8612 5.49475 35.9162 5.59161C35.9712 5.68847 36.0001 5.79795 36 5.90933V18.0928C35.9999 18.5016 35.9024 18.9045 35.7154 19.2681C35.5285 19.6316 35.2576 19.9454 34.9251 20.1833L30.4611 23.3745L25.6269 19.3219C26.5707 18.9832 27.4223 18.4284 28.1134 17.7019C28.2602 17.5499 28.3755 17.3706 28.4529 17.174C28.5303 16.9775 28.5683 16.7676 28.5646 16.5564C28.5609 16.3452 28.5156 16.1368 28.4313 15.9431C28.3471 15.7494 28.2255 15.5742 28.0736 15.4275C27.9216 15.2807 27.7422 15.1654 27.5457 15.088C27.3492 15.0106 27.1393 14.9726 26.9281 14.9763C26.7169 14.9801 26.5085 15.0253 26.3148 15.1096C26.1211 15.1938 25.9459 15.3154 25.7991 15.4673C25.3243 15.9662 24.7646 16.2799 24.12 16.4085C23.5569 16.519 22.8394 16.501 21.9369 16.2233L20.79 15.259L17.5886 17.8536C17.0046 18.3161 16.264 18.5343 15.5226 18.4624C14.7811 18.3904 14.0963 18.034 13.612 17.4679C13.1278 16.9018 12.8818 16.17 12.9256 15.4264C12.9694 14.6827 13.2997 13.9849 13.8471 13.4796ZM11.6923 11.0933L14.2843 8.75076C13.1695 8.44968 12.0026 8.39441 10.8643 8.58876L6.14572 9.40647L0.966859 6.61904C0.866865 6.56514 0.754584 6.53814 0.641016 6.54068C0.527448 6.54323 0.416489 6.57524 0.319013 6.63357C0.221536 6.6919 0.140885 6.77455 0.0849617 6.87343C0.0290387 6.97231 -0.000237546 7.08402 1.45164e-06 7.19761V18.0902C1.45164e-06 18.9593 0.42943 19.7719 1.14686 20.2605L15.174 29.8236C16.0603 30.4289 17.1109 30.7478 18.1842 30.7372C19.2574 30.7266 20.3015 30.3871 21.1757 29.7645L27.6197 25.1899L20.754 19.4299L19.6097 20.3505C18.3743 21.3346 16.805 21.8006 15.2327 21.6503C13.6604 21.5 12.2078 20.7451 11.1812 19.5448C10.1546 18.3445 9.63411 16.7924 9.72944 15.2158C9.82478 13.6392 10.5285 12.1612 11.6923 11.0933Z" fill="black"/>
</g>
<defs>
<clipPath id="clip0_626_248">
<rect width="36" height="36" fill="white"/>
</clipPath>
</defs>
</svg>
