<svg width="36" height="36" viewBox="0 0 36 36" fill="none" xmlns="http://www.w3.org/2000/svg">
<path d="M18 6.75V2.25M24 9V4.5M12 9V4.5M2.5485 30.1575C2.733 32.0287 4.242 33.3735 6.12075 33.4762C8.5365 33.609 12.4215 33.75 18 33.75C23.5785 33.75 27.4635 33.609 29.88 33.4762C31.758 33.3735 33.267 32.0287 33.4515 30.1575C33.6105 28.5457 33.75 26.2702 33.75 23.25C33.75 20.2298 33.6105 17.9543 33.4515 16.3425C33.267 14.4713 31.758 13.1265 29.8793 13.0237C27.4635 12.891 23.5785 12.75 18 12.75C12.4215 12.75 8.5365 12.891 6.12 13.0237C4.242 13.1265 2.733 14.4713 2.5485 16.3425C2.3895 17.955 2.25 20.2298 2.25 23.25C2.25 26.2702 2.3895 28.5457 2.5485 30.1575Z" stroke="black" stroke-width="1.5" stroke-linecap="round" stroke-linejoin="round"/>
<path d="M21 19.7145C21 19.7145 19.8 18.75 18 18.75M18 18.75C16.5 18.75 15 19.7145 15 21C15 24.2145 21 22.2855 21 25.5C21 26.7855 19.5 27.75 18 27.75M18 18.75V17.25M18 27.75C16.2 27.75 15 26.7855 15 26.7855M18 27.75V29.25M27.75 23.25H27M8.25 23.25H9" stroke="black" stroke-width="1.5" stroke-linecap="round" stroke-linejoin="round"/>
</svg>
