<svg width="36" height="36" viewBox="0 0 36 36" fill="none" xmlns="http://www.w3.org/2000/svg">
<path d="M17.0265 4C12.9765 4 9.5475 4.0375 6.7815 4.39C3.117 4.855 0 7.6585 0 12.8425C0 18.1015 0.273 22.0375 2.3775 25.582C4.7535 29.6335 8.727 31.855 13.8705 31.855H15.1155C21.429 31.855 24.8565 28.504 26.571 25.855C27.2734 24.7659 27.824 23.586 28.2075 22.348C32.688 21.9595 36 18.2575 36 13.7395V13.117C36 8.2465 32.805 4.8565 27.312 4.312C24.975 4.078 23.337 4 17.0265 4ZM17.0265 6.9205C23.3385 6.9205 24.6615 6.9985 26.883 7.1935C30.819 7.66 33.078 9.5695 33.078 13.1935V13.7785C33.078 17.0125 30.39 19.5445 27.273 19.5445H25.8705L25.6365 20.518C25.3245 22.0375 24.741 23.245 24.078 24.337C22.7145 26.479 20.2605 28.933 15.195 28.933H13.9875C10.131 28.933 6.741 27.6085 4.8705 24.1405C3.2355 21.1405 2.9235 17.908 2.9235 12.8815C2.9235 9.61 4.209 7.7785 7.4415 7.3105C9.741 6.961 12.78 6.9205 17.0265 6.9205ZM26.847 10.351C26.223 10.351 25.872 10.702 25.872 11.17V15.5725C25.872 16.039 26.223 16.39 26.847 16.39C28.833 16.39 29.9235 15.259 29.9235 13.39C29.9235 11.521 28.833 10.351 26.8455 10.351M11.2605 10.624C8.5335 10.624 6.741 12.844 6.741 15.337C6.741 17.6365 8.028 19.6225 9.6645 21.1825C10.755 22.234 12.4695 23.326 13.638 24.0265C13.9797 24.2305 14.3703 24.3382 14.7682 24.3382C15.1662 24.3382 15.5568 24.2305 15.8985 24.0265C17.0685 23.326 18.7815 22.234 19.833 21.1825C21.5085 19.624 22.794 17.6365 22.794 15.337C22.794 12.844 20.9235 10.624 18.2355 10.624C16.638 10.624 15.5475 11.4415 14.7285 12.571C13.989 11.4415 12.8595 10.624 11.2605 10.624Z" fill="black"/>
</svg>
