<svg width="36" height="36" viewBox="0 0 36 36" fill="none" xmlns="http://www.w3.org/2000/svg">
<path d="M8.10001 9C7.38392 9 6.69717 9.28446 6.19082 9.79081C5.68447 10.2972 5.40001 10.9839 5.40001 11.7V22.5C5.40001 23.2161 5.68447 23.9028 6.19082 24.4092C6.69717 24.9155 7.38392 25.2 8.10001 25.2H20.7C21.0777 24.6962 21.5569 24.2773 22.1066 23.9704C22.6564 23.6634 23.2644 23.4752 23.8914 23.418C23.0284 22.4633 22.5346 21.2318 22.4992 19.9453C22.4638 18.6588 22.889 17.402 23.6982 16.4013C24.5074 15.4006 25.6475 14.7218 26.9129 14.4872C28.1783 14.2526 29.4859 14.4776 30.6 15.1218V11.7C30.6 10.9839 30.3155 10.2972 29.8092 9.79081C29.3028 9.28446 28.6161 9 27.9 9H8.10001ZM4.50001 27H19.89C19.83 27.2916 19.8 27.5916 19.8 27.9C19.8 28.2 19.8228 28.5 19.8684 28.8H4.50001C4.26131 28.8 4.03239 28.7052 3.86361 28.5364C3.69483 28.3676 3.60001 28.1387 3.60001 27.9C3.60001 27.6613 3.69483 27.4324 3.86361 27.2636C4.03239 27.0948 4.26131 27 4.50001 27ZM31.5 19.8C31.5 20.7548 31.1207 21.6705 30.4456 22.3456C29.7705 23.0207 28.8548 23.4 27.9 23.4C26.9452 23.4 26.0296 23.0207 25.3544 22.3456C24.6793 21.6705 24.3 20.7548 24.3 19.8C24.3 18.8452 24.6793 17.9295 25.3544 17.2544C26.0296 16.5793 26.9452 16.2 27.9 16.2C28.8548 16.2 29.7705 16.5793 30.4456 17.2544C31.1207 17.9295 31.5 18.8452 31.5 19.8ZM34.2 27.9C34.2 30.141 32.4 32.4 27.9 32.4C23.4 32.4 21.6 30.15 21.6 27.9C21.6 27.1839 21.8845 26.4972 22.3908 25.9908C22.8972 25.4845 23.5839 25.2 24.3 25.2H31.5C32.2161 25.2 32.9028 25.4845 33.4092 25.9908C33.9155 26.4972 34.2 27.1839 34.2 27.9Z" fill="black"/>
</svg>
