<svg width="36" height="36" viewBox="0 0 36 36" fill="none" xmlns="http://www.w3.org/2000/svg">
<path d="M17.1 27.2416L28.194 16.1476C26.3277 15.3679 24.6326 14.2294 23.205 12.7966C21.7715 11.3686 20.6324 9.67304 19.8525 7.80607L8.7585 18.9001C7.893 19.7656 7.4595 20.1991 7.0875 20.6761C6.64859 21.2393 6.27189 21.8483 5.964 22.4926C5.7045 23.0386 5.511 23.6206 5.124 24.7816L3.081 30.9061C2.98697 31.1865 2.97302 31.4876 3.04071 31.7755C3.10841 32.0634 3.25507 32.3267 3.46421 32.5359C3.67334 32.745 3.93667 32.8917 4.22458 32.9594C4.51249 33.0271 4.81358 33.0131 5.094 32.9191L11.2185 30.8761C12.381 30.4891 12.9615 30.2956 13.5075 30.0361C14.1545 29.7281 14.76 29.3536 15.324 28.9126C15.801 28.5406 16.2345 28.1071 17.1 27.2416ZM31.272 13.0696C32.3781 11.9634 32.9996 10.4632 32.9996 8.89882C32.9996 7.33448 32.3781 5.83422 31.272 4.72807C30.1658 3.62192 28.6656 3.00049 27.1012 3.00049C25.5369 3.00049 24.0366 3.62192 22.9305 4.72807L21.6 6.05857L21.657 6.22507C22.3125 8.10124 23.3855 9.80405 24.795 11.2051C26.2379 12.6568 28.0003 13.7509 29.9415 14.4001L31.272 13.0696Z" fill="black"/>
</svg>
