<svg width="36" height="36" viewBox="0 0 36 36" fill="none" xmlns="http://www.w3.org/2000/svg">
<path d="M25.2945 25.2975L33.75 33.75M3.32549 21.03C4.01372 22.6692 5.01892 24.1562 6.28338 25.4058C7.54784 26.6555 9.04666 27.643 10.6938 28.3119C12.3409 28.9807 14.104 29.3176 15.8817 29.3033C17.6593 29.2889 19.4167 28.9236 21.0528 28.2283C22.689 27.533 24.1717 26.5214 25.4158 25.2516C26.66 23.9817 27.6411 22.4786 28.3028 20.8286C28.9645 19.1786 29.2938 17.4142 29.2718 15.6365C29.2497 13.8589 28.8769 12.1032 28.1745 10.47C26.7639 7.19019 24.1115 4.60267 20.7977 3.27374C17.4839 1.94481 13.7787 1.98269 10.4927 3.3791C7.20683 4.7755 4.60788 7.41671 3.26465 10.7247C1.92141 14.0327 1.94329 17.7381 3.32549 21.03Z" stroke="black" stroke-width="2.25" stroke-linecap="round" stroke-linejoin="round"/>
<path d="M15.75 18V24.75M22.086 22.5C21.6281 21.1843 20.772 20.0437 19.6365 19.2365C18.501 18.4294 17.1424 17.9957 15.7493 17.9957C14.3561 17.9957 12.9975 18.4294 11.862 19.2365C10.7265 20.0437 9.87039 21.1843 9.41251 22.5M11.25 11.25C11.25 12.4435 11.7241 13.5881 12.568 14.432C13.4119 15.2759 14.5565 15.75 15.75 15.75C16.9435 15.75 18.0881 15.2759 18.932 14.432C19.7759 13.5881 20.25 12.4435 20.25 11.25C20.25 10.0565 19.7759 8.91193 18.932 8.06802C18.0881 7.22411 16.9435 6.75 15.75 6.75C14.5565 6.75 13.4119 7.22411 12.568 8.06802C11.7241 8.91193 11.25 10.0565 11.25 11.25Z" stroke="black" stroke-width="2.25" stroke-linecap="round" stroke-linejoin="round"/>
</svg>
