<svg width="22" height="22" viewBox="0 0 22 22" fill="none" xmlns="http://www.w3.org/2000/svg">
<path d="M12.7905 1.39065L11.2392 9.54133L16.8591 9.56023L9.20934 20.6097L10.7607 11.6426L5.14106 11.6231L12.7905 1.39065ZM12.7916 0.015668C12.7544 0.015668 12.7173 0.0170215 12.6809 0.01975C12.4382 0.0393652 12.2773 0.12049 12.0865 0.248709C11.9791 0.320324 11.8823 0.406643 11.7988 0.505147C11.7738 0.534717 11.7501 0.56546 11.728 0.597272L4.02353 10.7939C3.71931 11.2109 3.67462 11.7613 3.90837 12.2212C4.14178 12.6811 4.61375 12.9726 5.13109 12.9764L9.10003 13.0053L7.85221 20.3571C7.73362 20.9889 8.07049 21.6186 8.66346 21.8723C8.83579 21.9464 9.02141 21.9845 9.20897 21.9844C9.64107 21.9844 9.99616 21.7823 10.2626 21.4172L17.9767 10.3677C18.2809 9.95069 18.3253 9.39966 18.0918 8.94041C17.8584 8.48047 17.3865 8.18895 16.8691 8.18519L12.9002 8.17831L14.1346 1.71409C14.1607 1.60826 14.1739 1.49964 14.1738 1.39063C14.1738 0.64675 13.5815 0.040375 12.8404 0.0163125C12.8239 0.015625 12.8077 0.015625 12.7916 0.015625L12.7916 0.015668Z" fill="black"/>
</svg>
