<svg width="26" height="25" viewBox="0 0 26 25" fill="none" xmlns="http://www.w3.org/2000/svg">
<path d="M23.5037 24.5698L14.8521 15.9892C14.1655 16.534 13.3758 16.9653 12.4832 17.2831C11.5906 17.6009 10.6407 17.7598 9.63367 17.7598C7.13889 17.7598 5.02771 16.9026 3.30014 15.1883C1.57256 13.474 0.708314 11.3802 0.707398 8.90676C0.706483 6.43335 1.57073 4.33949 3.30014 2.62518C5.02954 0.910868 7.14072 0.0537109 9.63367 0.0537109C12.1266 0.0537109 14.2382 0.910868 15.9686 2.62518C17.6989 4.33949 18.5627 6.43335 18.5599 8.90676C18.5599 9.90556 18.3997 10.8476 18.0793 11.7329C17.7589 12.6182 17.324 13.4014 16.7747 14.0824L25.4263 22.663L23.5037 24.5698ZM9.63367 15.0358C11.3503 15.0358 12.8096 14.4401 14.0117 13.2488C15.2137 12.0575 15.8143 10.6102 15.8134 8.90676C15.8125 7.20334 15.2119 5.75643 14.0117 4.56604C12.8114 3.37565 11.3521 2.77954 9.63367 2.77773C7.91524 2.77591 6.45637 3.37201 5.25705 4.56604C4.05772 5.76007 3.45669 7.20697 3.45394 8.90676C3.4512 10.6065 4.05223 12.0539 5.25705 13.2488C6.46187 14.4438 7.92074 15.0394 9.63367 15.0358Z" fill="black" fill-opacity="0.5"/>
</svg>
