<svg width="1424" height="218" viewBox="0 0 1424 218" fill="none" xmlns="http://www.w3.org/2000/svg">
<path d="M170.862 178.744L175.156 183.651C164.32 198.781 152.768 209.106 140.5 214.626C128.233 220.147 113.205 222.907 95.4168 222.907C69.246 222.907 46.96 212.173 28.5586 190.705C10.1573 168.828 1.05886 142.043 1.26332 110.352C1.67224 78.4566 10.8729 52.4902 28.8653 32.4532C46.8577 12.2118 69.0416 2.09104 95.4168 2.09104C112.182 2.09104 124.348 2.90888 131.913 4.54455C139.478 5.97577 148.576 8.73597 159.208 12.8252V60.9753H150.007C148.576 42.9829 143.771 29.9997 135.593 22.0258C127.415 13.8475 114.329 10.1672 96.3369 10.985C56.6718 12.8252 36.8392 46.6632 36.8392 112.499C36.8392 141.532 41.9507 165.352 52.1737 183.958C62.8056 202.359 76.7088 211.764 93.8834 212.173C111.058 212.377 125.166 209.924 136.206 204.812C147.247 199.496 158.799 190.807 170.862 178.744ZM356.225 31.8399C372.99 51.8769 381.373 78.1499 381.373 110.659C381.373 142.963 372.581 169.645 354.998 190.705C337.414 211.764 315.435 222.294 289.06 222.294C262.889 222.294 240.398 211.56 221.588 190.091C203.187 168.419 194.191 141.737 194.599 110.046C195.008 78.1499 204.005 52.0813 221.588 31.8399C239.376 11.3939 262.071 1.17098 289.673 1.17098C317.479 1.17098 339.663 11.3939 356.225 31.8399ZM289.366 211.56C308.381 211.56 322.795 202.461 332.609 184.264C342.424 166.067 347.331 141.941 347.331 111.886C347.331 81.6257 343.037 57.9084 334.45 40.7338C324.227 20.6968 308.483 10.6783 287.22 10.6783C266.16 10.6783 250.724 20.1857 240.91 39.2004C232.731 55.3527 228.642 79.4789 228.642 111.579C228.642 178.233 248.883 211.56 289.366 211.56ZM615.307 6.69138V16.1987C603.448 16.1987 596.497 17.221 594.452 19.2656C589.136 24.5816 586.478 32.4532 586.478 42.8807L587.092 223.214H580.038L450.308 23.2526V182.117C450.308 192.749 452.864 200.519 457.976 205.426C460.02 207.47 466.972 208.493 478.831 208.493V218H411.052V208.493C422.502 208.493 429.249 207.573 431.294 205.732C437.019 200.825 439.881 192.954 439.881 182.117V23.2526C439.268 18.55 436.201 16.1987 430.68 16.1987H413.506V6.69138H474.844L576.358 164.636V42.8807C576.358 32.4532 573.495 24.4793 567.77 18.9589C565.521 17.1188 558.774 16.1987 547.529 16.1987V6.69138H615.307ZM819.991 6.69138L820.604 68.9492H811.403C810.177 51.7746 805.576 39.0982 797.602 30.9198C789.629 22.537 775.623 17.8344 755.586 16.8121L741.478 16.1987V208.493H770.307V218H685.048V208.493H713.57V16.1987L699.769 16.8121C679.936 17.63 666.033 22.0258 658.059 29.9997C650.29 37.7692 645.485 50.7523 643.645 68.9492H634.751L635.364 6.69138H819.991ZM1032.03 208.493V218H952.296V208.493H976.831L955.976 148.075H882.064L870.41 175.677C866.73 185.082 864.89 192.034 864.89 196.532C864.89 200.825 865.503 203.892 866.73 205.732C867.956 207.573 874.397 208.493 886.051 208.493V218H819.193V208.493C829.825 208.697 837.492 207.368 842.195 204.506C847.102 201.439 852.418 191.829 858.142 175.677L924.694 0.864298H936.961L1009.34 208.493H1032.03ZM886.358 136.421H951.682L921.32 46.5609L886.358 136.421ZM1218.52 178.744L1222.81 183.651C1211.97 198.781 1200.42 209.106 1188.15 214.626C1175.89 220.147 1160.86 222.907 1143.07 222.907C1116.9 222.907 1094.61 212.173 1076.21 190.705C1057.81 168.828 1048.71 142.043 1048.92 110.352C1049.33 78.4566 1058.53 52.4902 1076.52 32.4532C1094.51 12.2118 1116.7 2.09104 1143.07 2.09104C1159.84 2.09104 1172 2.90888 1179.57 4.54455C1187.13 5.97577 1196.23 8.73597 1206.86 12.8252V60.9753H1197.66C1196.23 42.9829 1191.43 29.9997 1183.25 22.0258C1175.07 13.8475 1161.98 10.1672 1143.99 10.985C1104.33 12.8252 1084.49 46.6632 1084.49 112.499C1084.49 141.532 1089.6 165.352 1099.83 183.958C1110.46 202.359 1124.36 211.764 1141.54 212.173C1158.71 212.377 1172.82 209.924 1183.86 204.812C1194.9 199.496 1206.45 190.807 1218.52 178.744ZM1422.59 6.69138L1423.2 68.9492H1414C1412.77 51.7746 1408.17 39.0982 1400.2 30.9198C1392.22 22.537 1378.22 17.8344 1358.18 16.8121L1344.07 16.1987V208.493H1372.9V218H1287.64V208.493H1316.17V16.1987L1302.36 16.8121C1282.53 17.63 1268.63 22.0258 1260.65 29.9997C1252.89 37.7692 1248.08 50.7523 1246.24 68.9492H1237.35L1237.96 6.69138H1422.59Z" fill="black"/>
</svg>
