<?xml version="1.0" encoding="UTF-8"?>
<!DOCTYPE svg PUBLIC "-//W3C//DTD SVG 1.1//EN" "http://www.w3.org/Graphics/SVG/1.1/DTD/svg11.dtd">
<!-- Creator: CorelDRAW -->
<svg xmlns="http://www.w3.org/2000/svg" xml:space="preserve" width="119.852mm" height="87.3992mm" version="1.1" style="shape-rendering:geometricPrecision; text-rendering:geometricPrecision; image-rendering:optimizeQuality; fill-rule:evenodd; clip-rule:evenodd"
viewBox="0 0 11985.18 8739.92"
 xmlns:xlink="http://www.w3.org/1999/xlink"
 xmlns:xodm="http://www.corel.com/coreldraw/odm/2003">
 <defs>
  <style type="text/css">
   <![CDATA[
    .fil6 {fill:#224244}
    .fil41 {fill:#243B43}
    .fil31 {fill:#273C4F}
    .fil7 {fill:#2B3944}
    .fil21 {fill:#2B3B4A}
    .fil32 {fill:#31422F}
    .fil18 {fill:#66C5AA}
    .fil10 {fill:#66C7AA}
    .fil13 {fill:#6DD2B5}
    .fil30 {fill:#6ED5B6}
    .fil15 {fill:#71D3B6}
    .fil9 {fill:#71D9BB}
    .fil22 {fill:#72D5BA}
    .fil37 {fill:#73DBBC}
    .fil34 {fill:#74DDC3}
    .fil4 {fill:#74DFBF}
    .fil17 {fill:#75DFC1}
    .fil2 {fill:#75E1C1}
    .fil23 {fill:#75E1C4}
    .fil1 {fill:#76E1C2}
    .fil44 {fill:#77DAC6}
    .fil29 {fill:#78E1C2}
    .fil25 {fill:#7ADEC2}
    .fil35 {fill:#7ADEC5}
    .fil33 {fill:#7BE2C3}
    .fil48 {fill:#82DCC3}
    .fil45 {fill:#83C9BA}
    .fil43 {fill:#83DDCA}
    .fil51 {fill:#8BDAC9}
    .fil49 {fill:#8BDCC4}
    .fil26 {fill:#AAC9DA}
    .fil38 {fill:#B7D7E7}
    .fil8 {fill:#B8D9EC}
    .fil11 {fill:#B8DAE9}
    .fil42 {fill:#BBD9E6}
    .fil16 {fill:#BCDBEB}
    .fil52 {fill:#C0AC3B}
    .fil47 {fill:#D4F4ED}
    .fil19 {fill:#D8DDE2}
    .fil14 {fill:#E6E7E9}
    .fil46 {fill:#E6F7F7}
    .fil20 {fill:#E8EDF2}
    .fil36 {fill:#EDF3F5}
    .fil39 {fill:#EFEFEF}
    .fil27 {fill:#F2F6F9}
    .fil28 {fill:#F2F8F8}
    .fil40 {fill:#F9CC09}
    .fil0 {fill:#FAFEFF}
    .fil24 {fill:#FBFBFB}
    .fil12 {fill:#FCFFFF}
    .fil5 {fill:#FDCE01}
    .fil3 {fill:#FEFEFE}
    .fil50 {fill:#FFFEDA}
   ]]>
  </style>
 </defs>
 <g id="Слой_x0020_1">
  <metadata id="CorelCorpID_0Corel-Layer"/>
  <g id="_2339602502240">
   <path class="fil0" d="M-2277.82 71.47l9118.55 0 0 389.25c-519,0 -1037.99,0 -1556.98,0 -423.62,0 -1154.71,-38.68 -1524.52,17.04l3.65 55.52c51.08,76.85 116.93,68.97 171.92,225.21 52.5,149.19 -15.94,261.54 -8.28,313.31 79.87,-32.51 89.86,-128.46 318.03,110.58 87.7,-39.42 148.05,-129.36 239.51,-166.56l100.13 61.35 207.64 37.57c86.79,-29.96 76.85,-66.99 175.1,-93.2 72.78,45.13 150.31,99.57 211.26,160.78 97.15,-48.01 163.27,-124.85 253.41,-161.12 103.04,44.73 153.58,121.48 262.69,159.93l55 -58.16c134.21,-109.89 136.15,-107.45 235.3,-68.63 204.31,-70.72 457.78,-416.51 1369.08,-408.54 351.56,3.08 1174.43,152.33 1422.11,375.12l34.42 7.76c98.78,34.83 144.63,86.9 231.45,108.2l51.97 -9.89c120.92,-191.62 224.98,-58.98 372.22,51.64 94.96,-43.97 146.3,-131.63 258.34,-158.07l207.43 160.71c89.36,-36.85 186.56,-133.59 211.27,-143.75 51.33,-21.09 -29.49,-2.87 39.28,-6.03l27.19 7.13c22.89,78.86 29.14,307.5 -6.53,374.52 -42.62,46 -115.97,-45.17 -251.18,-140.7 -100.75,39.33 -141.97,116.89 -256.34,159.93l-204.52 -166.03 -79.37 24.72c-19.61,41.53 -11.86,28.9 -49.91,58.29l390.49 373.26c133.68,137.13 239.36,263.42 353.06,428.76 289.62,421.16 326.22,612.02 481.47,1061.31 184.06,41.91 183.43,100.48 187.26,93.63 18.78,-33.45 21.49,240.75 22.73,274.33 58.08,-19.77 29.76,-169.31 30.36,-319.79l1680.5 0 0 -3322.14 -14785.19 0 0 132.76z"/>
   <path class="fil1" d="M5469.77 2464.62c128.14,2.2 256.32,-0.43 384.49,1.03 184.85,2.1 218.38,40.95 325.42,97.58l162.09 13.76c0,133.26 -4.77,72.61 78.16,154.35 37.37,36.83 27.9,28.13 61.59,64.77l29.15 31.47c50.63,57.37 -3.73,-55.68 21.19,25.92l0 1457.4c-207.98,33.99 -99.85,70.3 -173.6,191.51l-34.81 42.97c-41.04,33.16 -69.26,17.65 -129.53,42.04 0,42.27 4.64,125.08 0.07,164.09 -8.99,76.74 -24.98,46.42 -37.11,127.4 -13.79,92.06 9.86,220.47 9.53,319.11 -0.37,108.19 -11.45,206.21 -6.68,316.84 2.14,49.52 7.1,99.02 7.49,149.22 0.79,100.95 -3.41,77.86 -24.02,141.76 -21.03,65.18 -31.81,124.63 -8.62,208.31l23.52 60.41c38.03,138.53 -15.5,188.01 -29.57,266.45 -25.11,140.09 28.6,196.78 37.01,273.09 9.02,81.85 0.04,224.45 -0.31,312.54 -36.73,13.31 -42.65,14.28 -81.55,31.5 -87.04,38.52 -49.65,11.86 -35.58,34.32 145.23,1.79 71.23,50.35 152.55,114.3 52.75,41.47 1.38,-42.58 52.52,42.06 72.21,102.82 -27.63,21.74 32.08,131.37 71.38,131.06 8.25,78.84 -13.14,145.75 -25.36,79.32 30.34,-12.28 -6.89,101.58 -52.23,71.89 -44.6,30.8 -71.74,56.93 -24.82,23.89 -2.25,-12.03 -29.1,36.23 -14.39,25.85 -5.87,19.49 -16.36,48.32l1569.39 1.19c69.8,-75.1 285.1,-321.9 378.76,-358.33 -25.98,-74.76 93.46,-197.62 141.16,-255.24 -44.89,-129.7 -109.92,-134.29 -154.93,-253.36 194.14,-377.91 237.63,-48.43 -3.68,-482.39 50.76,-70.45 128.25,-153.46 159.38,-235.75 -33.87,-61.75 -151.51,-184.16 -149.59,-230.52 2,-48.43 120.43,-163.8 149.73,-234.15 -41.93,-104.87 -121.06,-134.64 -153.19,-253.46 55.54,-89.23 117.13,-137.45 151.62,-232.34 -43.63,-77.46 -118.71,-147.56 -154.56,-232.34 49.76,-96.19 118.27,-143.14 156.53,-232.34 -43.31,-94.71 -110.53,-145.75 -158.47,-248.62 198.4,-294.3 208.89,-159.25 0.05,-454.13 39.07,-109.76 109.29,-148.27 159,-247.73 -45.59,-103.63 -120.72,-129.18 -153.32,-253.46 37.85,-59.99 145.9,-179.74 143.12,-229.1 -3.06,-54.3 -117.41,-160.79 -146.83,-235.57 42.98,-68.53 129.4,-164.95 156.04,-232.34 -138,-290.2 -152.52,-68.68 -281.5,-370.62l-163.39 -480.7 217.33 -10.9 0.01 -608.41c-58.26,31.22 -169.6,132.87 -221.46,121.46 -48.81,-10.75 -154.64,-116.5 -224.33,-148.45 -400.26,262.61 -131.48,161.55 -437.7,26.53 -8.24,101.69 31.78,422.35 -261.35,430.87 -304.6,8.86 -274.67,-308.76 -280.12,-432.33 -139.45,76.95 -178.46,92.5 -175.69,288.97 2.48,174.91 -5.91,279.47 -141.92,351.85 -142.64,75.91 -285.15,-0.16 -343.93,-84.35 -74.76,-107.08 -43.2,-297.39 -48.09,-441.53 -73.22,-37.76 -89.39,-71.79 -177.67,-113.73 3.66,191.33 6.29,393.79 2.77,584.82 -4.53,244.99 -89.41,233.42 -232.97,337.35l1.55 244.77z"/>
   <path class="fil1" d="M8338.28 7030.38c-3.89,92.59 9.8,36.05 25.51,51.47 176.68,-80.83 802.26,-513.59 947.04,-623.73 563.26,-428.49 1099.44,-1113.38 1286.8,-1838.52 142.52,-551.58 70.45,-875.71 -11.11,-1406.92 -155.25,-449.29 -191.85,-640.15 -481.47,-1061.31 -113.7,-165.34 -219.38,-291.63 -353.06,-428.76l-390.49 -373.26 -103.87 70.26c-69.01,24.33 -141.84,-66.41 -256.46,-148.63 -98.45,38.72 -140.86,117.66 -253.46,157.71 -71.93,-46.96 -120.92,-95.69 -196.65,-127.87l1.26 606.77c257.18,0.02 236.53,-49 233.45,206.24 -1.71,141.9 6.28,294.24 -4.03,434.39 -189.97,48.52 -280.41,-100.41 -446.03,220.8 43.39,77.64 121.59,143.56 158.05,232.34 -39.61,88.21 -112.02,164.8 -160.73,250.7 51.86,80.53 122.77,141.56 165.85,237.97l-164.16 229.46c42.49,71.77 130.18,160.76 159.78,232.34 -44.28,91.7 -110.52,160.75 -160.95,250.68 54.9,78.26 122.42,142.14 159.76,235.12 -39.66,78.05 -114.88,148.7 -158.77,232.34 295.05,395.54 109,175.65 4.7,485.8 54.28,83.39 121.33,146.78 154.94,232.34 -45.26,85.27 -117.26,142.44 -159.35,232.34 250.42,377.42 185.9,125.99 -1.37,482.96 54.72,78.25 123.48,140.5 160.13,235.18 -47.15,83.38 -126.04,151.21 -158.47,232.33 129.59,199.21 258.98,196.29 3.16,459.46z"/>
   <path class="fil2" d="M1875.36 6958.82c40.31,-46.64 137.47,-483.09 128.59,-549.26 -31.36,-189.92 -12.07,-537.08 -11.1,-746.87 1.14,-246.24 2,-492.94 1.02,-739.26 -1.3,-326.89 -43.19,-1256.46 28.66,-1487.48l-211.32 -180.13c6.81,126.54 -68.98,116.83 -92.42,121.98 -42.42,9.32 -166.67,3.64 -215.72,3.64 0,-93.63 19.55,-142.45 21.06,-211.88 1.59,-73.5 -21.06,-89.77 -21.06,-189.4 -120.67,-0.09 16.37,7.74 -105.82,21.09 -6.71,61.44 -7.56,68.24 -63.26,126.73l-189.99 0c12.08,-116.17 -45.46,-78.86 42.24,-105.61 -2.42,3.33 87.57,28.6 -25.73,5.48 -51.7,-10.55 -64.26,-49.87 -80.06,-72l-84.68 3.16c-50.31,8.51 -55.09,41.95 -96.26,93.61 -33.28,41.76 -55.71,67.96 -83.97,105.91 -841,1129.61 -415.5,2346.68 485.13,3255.47 176.83,178.44 219.39,202 407.24,353.36 155.67,125.42 170.72,101 167.45,191.46z"/>
   <path class="fil3" d="M4214.95 4564c107.22,-42.97 862.75,-14.33 1047.91,-15.93 327.3,-2.83 299.3,-12.33 289.33,524.96 -1.82,98.1 -13.85,148.03 -68.88,172.71 -69.2,31.03 -916.55,12.43 -1065.65,13.02 -299.3,1.19 -307.75,53.82 -294.92,-526.94 2.58,-116.69 1.67,-131.54 92.21,-167.82zm-1756.32 211.58c0,-221.36 29.64,-228.19 248.27,-228.35l929.36 -0.04c198.27,-0.01 251.35,-2.94 251.35,207.27 0,488.96 46.5,507.6 -230.23,507.6 -1397.18,0.06 -1198.75,95.04 -1198.75,-486.48zm-285.45 -1285.87c-102.23,-0.43 -50.95,-44.94 -65.42,60.81l1.44 2344.79c2.96,14.53 -48.88,-33 30.33,74.39 18.84,-124.03 53.9,-352.47 123.82,-433.82 28.29,37.15 10.86,-14.38 19.95,50.06 12.73,90.19 -33.91,102.87 -29.56,210.16l204.21 -0.29c1.44,-361.78 -48.74,-297.08 819.24,-298.86 247.29,-0.51 2148.01,-30.94 2228.18,28.68 77.5,57.64 53.21,404.84 48.43,518.21 -11.32,268.7 -219.99,110.05 -378.4,185.52 29.85,17.63 55.91,36.84 78.45,54.4 -22.98,223.03 -20.88,167.27 171.96,167.68l70.62 98.47c37.5,34.93 11.41,-6.83 36.01,53.01 0.6,1.46 13.15,62.46 13.15,62.5 11.47,93.12 -7.37,69.75 33.75,159.72 -12.22,82.82 18.54,130.31 -23.71,200.98 -1.17,20.63 -7.18,76.04 -4.47,95.16 12.33,87.21 -2.13,29.81 27.98,58.56 58.36,-106.33 22.91,-41.29 88.27,-74.18 91.58,-46.09 -19.39,-4.61 59.9,-92.41 89.57,-51.4 47.15,-6.78 90.67,-11.93 33.59,-3.97 16,1.46 38.67,-8.25 0.83,-0.35 29.35,-23.4 46.53,-33.04l-1.22 -2674.56c-56.53,16.57 -133.97,14.36 -206.7,23.2 -145.03,17.63 -66.17,7.78 -167.06,-34.8 -72.32,28.76 71.33,-19.27 -33.71,4.87 -54.66,56.76 -134.11,41.43 -231.77,40.71l-2620.89 -8.19c-213.99,-1.66 -182.74,-92.38 -181.71,-295.86 0.79,-154.58 -30.32,-321.4 59.88,-401.52 102,-61.56 1685.41,27.24 1915.52,-31.41l-0.87 -380.2c-120.49,-34.15 -1429.2,-28.54 -1603.89,-7.94 -212.2,227.06 -228,312.22 -657.58,295.38z"/>
   <path class="fil1" d="M4358.35 1980.23c-4.79,3.68 -11.67,7.27 -15.59,9.23 -3.91,1.94 -10.92,6.45 -15.8,8.67 -360.74,164.31 -1839.73,-84.83 -2744.86,448.9 -200.67,118.34 -484.89,344.42 -586.33,511.98l84.68 -3.16c15.8,22.13 28.36,61.45 80.06,72 113.3,23.12 23.31,-2.15 25.73,-5.48 -87.7,26.75 -30.16,-10.56 -42.24,105.61l189.99 0c55.7,-58.49 56.55,-65.29 63.26,-126.73 122.19,-13.35 -14.85,-21.18 105.82,-21.09 0,99.63 22.65,115.9 21.06,189.4 -1.51,69.43 -21.06,118.25 -21.06,211.88 49.05,0 173.3,5.68 215.72,-3.64 23.44,-5.15 99.23,4.56 92.42,-121.98l-38.05 -102.35c-283.61,-622.46 546.77,-1126.53 974.63,-636.62 65.27,74.73 76.12,141.51 128.19,211.19 105.02,-65.73 597.52,-20.62 760.28,-20.85 194.01,-0.27 629.29,-22.14 794.89,10.61 53.41,41.82 -11.81,23.21 87.55,25.42 -31.75,-57.06 -41.87,-43.67 47.92,-119.8 35.14,-29.79 3.61,-13.82 34.63,-30.18 46.44,-24.48 32.3,-15.88 95.76,-15.88l9.04 230.99 22.35 1128.35c1.59,3.6 5.13,10.12 8.8,14.37l-8.05 -593.64 4.65 -406.42 -7.45 -481.6 668.47 -0.67 7.82 -227.75c-28.26,-79.77 -143.16,-44.62 -210.69,-183.28 -48.68,-99.92 -26.51,-251.66 -30.23,-371.1 -185.78,48.64 -608.51,304.93 -803.37,293.62z"/>
   <path class="fil4" d="M3837.05 8007.71c69.2,59.13 111.17,43.74 184.32,107.55l941.21 337.86c934.72,284.55 1758.65,426.71 2408.35,-365.24 86.54,-105.48 214.25,-251.63 284.75,-355.12l-1759.51 0.13 -51.88 54.11c-3.09,3.96 -6.36,8.79 -9.16,12.76l-106.82 166.2c-318.97,12.81 -652.31,5.84 -972.6,5.18 -161.92,-0.34 -323.86,0.57 -485.8,0.3 -348.13,-0.61 -194.57,-22.99 -432.86,36.27z"/>
   <path class="fil5" d="M2457.95 5795.81l188.17 -1.74c43.24,-188.84 26.08,-229.9 103.03,-253.3 33.33,82.74 -117.02,530.47 -136.62,668.58l1776.75 4.16 112.19 -3.39 139.15 7.29c3.62,1.06 9.61,4.84 14.38,7.33l29.87 -95.81 176.43 -2.88 36.28 81.79 157.56 2.6c57.32,-20.53 66.07,-15.03 120.26,18.92 158.41,-75.47 367.08,83.18 378.4,-185.52 4.78,-113.37 29.07,-460.57 -48.43,-518.21 -80.17,-59.62 -1980.89,-29.19 -2228.18,-28.68 -867.98,1.78 -817.8,-62.92 -819.24,298.86z"/>
   <path class="fil6" d="M8158.07 6803.26c20.27,-48.79 81.19,-125.14 124.96,-168.66l73.87 72.95c22.8,29.78 34.69,52.41 62.31,95.71 -44.49,89.44 -73.29,91.22 -108.05,176.62 -49.26,-24.58 -46.53,-19.4 -89.47,-73.96 -23.57,-29.96 -47.43,-65.61 -63.62,-102.66zm0.62 -464.67c27.77,-69.47 83.91,-135.78 125.8,-183.16 49.91,50.07 105.71,120.35 140.19,182.1 -59.15,74.46 -74.91,113.2 -147.69,169.77 -36.81,-57.49 -80.38,-106.33 -118.3,-168.71zm-0.68 -485.8c19.91,-46.58 80.92,-128 125.02,-166.41l72.04 72.37c24.15,31.84 34.67,51.21 64.11,94.04 -29.08,59.06 -78.35,138.97 -136.15,172.54 -48.16,-54.93 -95.48,-102.12 -125.02,-172.54zm0.42 -464.68c29.49,-75.85 73,-113.2 130.26,-184.25l136.58 184.5c-47.16,64.52 -86.34,125.95 -150.54,169.86 -35.22,-54.29 -79.36,-110.78 -116.3,-170.11zm-0.17 -485.8c22.37,-49.08 80.05,-125.85 124.77,-166.45l130.35 187.57c-51.32,76.11 -67.48,68.94 -99.91,157.45 -72.8,-36.37 -126.74,-102.18 -155.21,-178.57zm-3.11 -494.54c91.92,-76.3 51.35,-98.66 159.63,-151.53 35.06,87.32 62.2,101.09 106,177.78 -33.7,63.27 -85.6,131.16 -137.75,167.41 -62.4,-64.63 -103.78,-109.61 -127.88,-193.66zm3.74 -455.94c22.16,-46.64 80.99,-127.48 124.14,-165.85l136.16 165.85c-45.69,95.38 -73.45,86.59 -107.97,178.67 -70.58,-36.76 -126.13,-107.57 -152.33,-178.67zm-0.82 -464.67c22.55,-71.51 89.28,-134.01 128.2,-181.84 53.18,38.8 104.98,128.84 135.09,177.25 -32.75,60.95 -90.12,134.14 -138.33,166.59 -39.84,-36.44 -99.46,-117.76 -124.96,-162zm124.96 -652.11c3.91,2.9 9.13,7.34 11.26,9.29l129.38 157.37c-42.9,69.15 -79.21,96.5 -110.99,178.31 -63.04,-30.04 -57.03,-29.29 -100.64,-86.87 -37.82,-49.92 -35.08,-37.45 -55.02,-91.79 25.19,-46.86 83.6,-123.19 126.01,-166.31zm0 -135.09c-48.99,-46.19 -83.15,-84.9 -104.85,-138.67l214.62 0.43c-30.5,62.99 -67.32,109.78 -109.77,138.24zm-267.33 -340.4c-33.69,-73.8 -70.78,-158.74 -96.23,-246.97l393.08 13.77 -2.55 232.52 -294.3 0.68zm55.67 -309.08c-233.69,3.34 -182.65,0.11 -208.55,-62.97 57.61,-33.48 112.45,-18.58 208.76,-15.79l652.97 1.06 1.36 519.87c-125.67,10.87 -253.3,4.52 -379.52,4.96 -303.83,1.06 -271.98,31.47 -302.48,-75.02l311.49 -4.11c40.9,-94.36 31.88,-259.96 7.84,-362.21 -95.75,-12.04 -194.95,-7.17 -291.87,-5.79zm100.8 -679.43c203.01,116.2 131.08,12.58 316.59,-73.39l-0.14 605.68 -374.46 1.37c-54.39,-11.92 -24.27,4.54 -41.7,-43.92l3.11 -566.42c59.84,27.04 60.4,36.57 96.6,76.68zm-2233.28 88.42c-0.28,-75.47 141.1,-160.76 210.85,-189.76 195.58,147.74 199.98,98.3 199.98,253.13 0,164.38 16.07,380.05 -200.44,382.08 -242.67,2.28 -209.71,-272.25 -210.39,-445.45zm712.35 -157.93c80.32,34.73 157.53,125 211.18,119.42 35.84,-3.73 144.59,-94.83 190.36,-119.82 36.3,180.89 -12.31,355.34 -186.56,364.43 -210.17,10.96 -215.13,-179.31 -214.98,-364.03zm1933.6 -74.41c36.66,-58.28 112.76,-102.73 167.95,-138.15 54.94,31.36 139.78,84.23 177.75,138.15 -58.91,56.4 -114.76,97.19 -182.83,129.72 -43.66,-32.33 -127.85,-89.45 -162.87,-129.72zm-301.81 -133.81c80.53,57.11 109.85,56.02 170.58,133.81 -51.59,47.69 -108.78,100.32 -170.58,129.32l-173.59 -129.32 173.59 -133.81zm-480.78 -5.4c42.91,24.05 147.78,96.59 176.69,139.21 -52.37,54.62 -117.12,102.2 -181.89,129.29l-169.42 -137.64 174.62 -130.86zm-564.85 65.26c32.17,-24.41 51.04,-35.96 95.16,-59.43l170.17 133.38c-53.96,49.14 -105.15,92.22 -170.17,129.81 -69.09,-34.44 -118.47,-78.66 -173.37,-129.81l78.21 -73.95zm-555.12 73.95c39.77,-57.63 111.52,-94.62 172.06,-142.63l174.7 142.63c-53.14,53.72 -119.17,102.81 -182.28,128.98 -50.1,-36.77 -118.61,-83.28 -164.48,-128.98zm-472.85 0c3.27,-4.08 8.22,-9.3 10.53,-11.65l162.12 -123.26 170.38 134.91c-56.26,50.13 -103.12,90.09 -170.38,128.88 -71.1,-34.75 -116.63,-76.95 -172.65,-128.88zm-515.14 -46l1.28 65.96c-20.48,-125.07 -4.72,-16.72 32.49,-50.5 48.18,-7.51 9.38,6.78 54.08,-19.42 0.65,-0.37 45.12,-33.69 49.41,-37.02 53.39,-41.4 23.9,-46.92 90.48,-47.15 45.89,31.22 123.37,85.38 156.43,134.13 -53.44,55.05 -117.04,101.87 -182.18,129.1 -32.04,-26.48 -63.67,-49.43 -103.5,-78.53l-169.65 13.94c39.23,68.41 30.25,573.71 7.38,685.92 -41.68,204.48 -331.12,237.06 -402.2,-1.09 -25.94,-51.15 -23.06,-578.38 -74.41,-670.28l7.82 380.42c3.72,119.44 -18.45,271.18 30.23,371.1 67.53,138.66 182.43,103.51 210.69,183.28l-7.82 227.75c-35.61,113.36 -122.11,459.94 -185.25,522.67 2.09,115.13 -65.5,259.32 -105.34,368.9l-181.42 568.46 22.99 43.58c5.5,-4.12 25.73,-3.79 36.83,-21.14 20.85,-101.89 158.57,-551.41 206.36,-601.7 0.97,-75.61 78.24,-334.89 118.52,-390.5l132.33 -377.16 115.03 377.16 131.95 403.94 190.16 569.54 50.25 42.57 13.8 -52.4 -294.19 -939.35 -92.25 -251.68c-30.33,-95.76 -61.18,-173.98 -84.82,-267.01l-1.55 -244.77c143.56,-103.93 228.44,-92.36 232.97,-337.35 3.52,-191.03 0.89,-393.49 -2.77,-584.82 88.28,41.94 104.45,75.97 177.67,113.73 4.89,144.14 -26.67,334.45 48.09,441.53 58.78,84.19 201.29,160.26 343.93,84.35 136.01,-72.38 144.4,-176.94 141.92,-351.85 -2.77,-196.47 36.24,-212.02 175.69,-288.97 5.45,123.57 -24.48,441.19 280.12,432.33 293.13,-8.52 253.11,-329.18 261.35,-430.87 306.22,135.02 37.44,236.08 437.7,-26.53 69.69,31.95 175.52,137.7 224.33,148.45 51.86,11.41 163.2,-90.24 221.46,-121.46l-0.01 608.41 -217.33 10.9 163.39 480.7c128.98,301.94 143.5,80.42 281.5,370.62 -26.64,67.39 -113.06,163.81 -156.04,232.34 29.42,74.78 143.77,181.27 146.83,235.57 2.78,49.36 -105.27,169.11 -143.12,229.1 32.6,124.28 107.73,149.83 153.32,253.46 -49.71,99.46 -119.93,137.97 -159,247.73 208.84,294.88 198.35,159.83 -0.05,454.13 47.94,102.87 115.16,153.91 158.47,248.62 -38.26,89.2 -106.77,136.15 -156.53,232.34 35.85,84.78 110.93,154.88 154.56,232.34 -34.49,94.89 -96.08,143.11 -151.62,232.34 32.13,118.82 111.26,148.59 153.19,253.46 -29.3,70.35 -147.73,185.72 -149.73,234.15 -1.92,46.36 115.72,168.77 149.59,230.52 -31.13,82.29 -108.62,165.3 -159.38,235.75 241.31,433.96 197.82,104.48 3.68,482.39 45.01,119.07 110.04,123.66 154.93,253.36 5.31,-5.37 11.64,-22.42 15.95,-16.09 4.04,5.91 12.2,-10.61 17.71,-11.67 34.64,-6.68 9.74,-10.73 67.29,1.52 255.82,-263.17 126.43,-260.25 -3.16,-459.46 32.43,-81.12 111.32,-148.95 158.47,-232.33 -36.65,-94.68 -105.41,-156.93 -160.13,-235.18 187.27,-356.97 251.79,-105.54 1.37,-482.96 42.09,-89.9 114.09,-147.07 159.35,-232.34 -33.61,-85.56 -100.66,-148.95 -154.94,-232.34 104.3,-310.15 290.35,-90.26 -4.7,-485.8 43.89,-83.64 119.11,-154.29 158.77,-232.34 -37.34,-92.98 -104.86,-156.86 -159.76,-235.12 50.43,-89.93 116.67,-158.98 160.95,-250.68 -29.6,-71.58 -117.29,-160.57 -159.78,-232.34l164.16 -229.46c-43.08,-96.41 -113.99,-157.44 -165.85,-237.97 48.71,-85.9 121.12,-162.49 160.73,-250.7 -36.46,-88.78 -114.66,-154.7 -158.05,-232.34 165.62,-321.21 256.06,-172.28 446.03,-220.8 10.31,-140.15 2.32,-292.49 4.03,-434.39 3.08,-255.24 23.73,-206.22 -233.45,-206.24l-1.26 -606.77c75.73,32.18 124.72,80.91 196.65,127.87 112.6,-40.05 155.01,-118.99 253.46,-157.71 114.62,82.22 187.45,172.96 256.46,148.63l103.87 -70.26c38.05,-29.39 30.3,-16.76 49.91,-58.29l-12.19 -35.78c-39.65,8.53 -10.35,1.44 -52.04,21.95 -36.81,18.11 -15.07,13.85 -56.22,26.33l-30.91 51.68c-81.7,-12.54 -50.63,-8.68 -117.95,-58.26 -54.35,-40.02 -55.72,-30.94 -83.33,-92.4l55.28 -18.1 -6.84 -16.53 -13.59 -42.96 -51.97 9.89 -36.06 45.27c-65.38,-29.63 -151.28,-92.77 -195.39,-153.47l-34.42 -7.76c-113.47,24.59 -163.74,111.27 -260.41,157.4 -387.28,-286.67 -177.38,-110.77 -486.82,4.34 -219.41,-200.71 -223.37,-196.42 -444.74,-2.95 -97.81,-39.9 -153.76,-115.55 -251.25,-158.49 -59.26,28.18 -177.29,110.87 -231.42,167.88l-225.04 -171.01c-89.9,26.97 -181.08,105.58 -241.68,162.92 -98.32,-42.4 -152.19,-117.02 -252.34,-160.11 -53.56,22.11 -185.15,117.38 -224.41,161.13 -54.54,-19.96 -138.94,-79.3 -173.08,-127.69 -99.15,-38.82 -101.09,-41.26 -235.3,68.63l-55 58.16z"/>
   <path class="fil7" d="M7903.32 7666.32c57.99,-57.37 115.95,-131.43 231.86,-131.37 312.27,0.16 350.28,-36.6 523.52,130.86l-755.38 0.51zm-2007.99 -594.04c0.08,-0.13 19.38,-39.3 27.92,-53.19 58.7,64.07 56.66,76.13 169.75,44.72 13.54,137.33 45.14,72.42 82.83,134.99 33.46,55.56 -4.71,89.76 76.97,131.79 -57.34,64.88 -87.88,77.45 -41.32,176.49 -104.33,-0.36 -60.1,3.05 -116.78,64.41 -81.99,88.76 -105.7,-44.35 -157.95,93.55 -45.18,-59.58 -45.83,-69.16 -149.59,-60.38 -45.38,7.28 17.24,-86.27 -137.56,-106.2 45.69,-82.02 30.18,-112.95 -40.82,-159.32 65.86,-42.21 33.63,-14.98 54.37,-75.07 6.76,-19.57 10.8,-47 12.76,-51.62 1.93,-4.53 4.09,-10.32 6.37,-14.43 25.33,-45.66 11.25,18.05 103.94,-133.48 61.99,27.43 27.27,19.28 109.11,7.74zm2262.77 216.78c33.6,-82.55 82.97,-116.19 132.26,-178.98 44.67,61.82 96.27,104.98 134.76,177.98 -55.45,71.77 -84.39,122.99 -148.79,168.96 -36.14,-50.76 -84.64,-109.15 -118.23,-167.96zm-5974.58 316.93c-27.02,81.17 87.58,65.09 -413.36,63.55l153.04 -591.69c104.61,-37.18 277.12,-15.51 397.11,-12.85 -0.58,93.92 1.31,26.42 -22.87,52.18 2.1,81.73 -73.74,437.39 -113.92,488.81zm159.3 -625.53c-34.87,38.09 -14.91,34.26 -184.93,28.14 -75.68,-2.71 -133.33,-4 -209.64,-0.85 -8.5,-84.08 31.38,-180.7 58.21,-269.32l393.4 -3.79 -7.82 51.9 -49.22 193.92zm-230.42 -298.4l-89.37 -3.06c8.94,-59.48 17.61,-88.78 32.8,-146.56 17.25,-65.67 -2.28,-82.94 59.86,-87.86l363.68 2.17 -51.13 231.72 -315.84 3.59zm3287.7 -127.44l36.26 37.43c-31.87,45.77 -36.38,39.88 -76.78,85.11l37.23 162.76c61.15,28.43 86.43,4.41 112.03,58.7 42.1,89.28 -27.55,74.13 -43.89,83.85 -44.65,26.59 -85.22,-34.04 -102.81,211.12 30.12,21.17 108.64,56.8 50.21,115.38 -45.04,45.15 -65.47,6.47 -146.39,5.85 -201.72,223.17 -17.78,169.5 -108.94,245.93 -115.12,46.74 -45.76,-18.43 -133.98,-44.43 -40.27,-11.86 -118.11,17.04 -169.4,25.09l-30.89 122.73c-133.46,5.82 -83.32,-9.34 -122.33,-122.5 -82.26,-13.39 -118.44,-41.06 -186.61,-11.3 -39.61,17.3 -54.24,87.71 -112.22,30.09 -105.25,-104.58 104.83,1.98 -112.35,-245.96 -59.91,1.66 -160.36,47.74 -161.4,-44.33 -1.07,-94.86 82.17,-33.61 52.94,-181.6 -34.1,-172.7 -73.66,-55.53 -129.45,-133.47 -66.38,-92.74 56.4,-93.65 106.75,-113.16l15.54 -94.05c15.87,-65.83 12.99,-76.03 -6.14,-124.15 -33.66,-4.09 -18.11,12.24 -49.35,-7.47 16.02,-102.54 2.45,-36.14 36.72,-60.59l24.58 -14.72c3.66,-1.32 10.02,-3.92 14.33,-5.16 4.67,-1.34 11.02,-2.16 16.16,-3.32 41.78,-9.47 -0.06,13.25 70.64,-10.87 12.32,-4.21 67.98,-41.82 84.98,-67.15 51.79,-77.11 -34.16,-160.45 62.19,-181.44 69.47,-15.13 35.85,104.23 203.72,47.67 178.43,-60.13 -2.24,-112.47 166.5,-124.87 113.16,23.4 -85.94,54.15 211.22,146.99 68.01,-39.76 143.44,-151.28 162.07,-6.26 15.65,121.94 -88.36,-44.32 82.64,199.04 167.49,-1.21 114.68,-22.81 146.22,19.06zm-2937.93 -422.96l98.73 1.25 -26.91 70.69 -38.26 178.62 -399.3 -0.3 67.19 -249.04 298.55 -1.22zm-322.64 -161.96c-23.55,80.76 -41.2,145.97 -61.25,224.94 -21.07,82.99 -25.51,146.67 -74.33,214.92 8.88,66.17 -88.28,502.62 -128.59,549.26l-161.22 711.94c-191.11,3.88 -1016.65,-28.71 -1113.46,18.06 29.19,63.77 37.1,45.86 139.95,45.96l530 -1.79c222.94,0 456.38,6.21 677.42,-1.1l1295.03 -2.22 2653.09 3.22 1759.51 -0.13 2950.74 0.36c212.79,0.02 317.38,34.75 353.57,-44.87 -99.1,-45.66 -1738.72,-8.12 -2087.3,-14.89 -258.22,-5.02 -154.26,-193.98 -500.33,-200.38 39.45,-79.57 76.41,-111.43 120.05,-183.92 -25.45,-75.18 -81.3,-132.03 -128.62,-207.21 -15.71,-15.42 -29.4,41.12 -25.51,-51.47 -57.55,-12.25 -32.65,-8.2 -67.29,-1.52 -5.51,1.06 -13.67,17.58 -17.71,11.67 -4.31,-6.33 -10.64,10.72 -15.95,16.09 -47.7,57.62 -167.14,180.48 -141.16,255.24 34.4,41.89 87.61,126.44 111,155.15 -182.91,29.5 -143.25,-23.48 -272.15,86.46 -67.45,57.53 -107.03,115.72 -217.61,116.72l-1569.39 -1.19c10.49,-28.83 1.97,-22.47 16.36,-48.32 26.85,-48.26 4.28,-12.34 29.1,-36.23 27.14,-26.13 19.51,14.96 71.74,-56.93 37.23,-113.86 -18.47,-22.26 6.89,-101.58 21.39,-66.91 84.52,-14.69 13.14,-145.75 -59.71,-109.63 40.13,-28.55 -32.08,-131.37 -51.14,-84.64 0.23,-0.59 -52.52,-42.06 -81.32,-63.95 -7.32,-112.51 -152.55,-114.3 -44.66,25.94 19.03,14.85 -33.86,1.26 -41.1,-10.56 16.65,3.74 -34.28,-17.42 -19.17,-7.97 25.31,-24.66 -76.78,-16.27 -17.18,9.64 -45.7,32.69 -46.53,33.04 -22.67,9.71 -5.08,4.28 -38.67,8.25 -43.52,5.15 -1.1,-39.47 -90.67,11.93 -79.29,87.8 31.68,46.32 -59.9,92.41 -65.36,32.89 -29.91,-32.15 -88.27,74.18l2.81 23.42 0.72 66.56c-93.45,107.36 48.76,-89.09 -20.59,24.33 -53.16,86.98 11.64,70.34 26.46,144.18 27.81,138.66 -67.68,64.36 105.1,147.36l19.58 84.38 -819.78 -21.94c16.48,-49.11 16.64,-85.68 105.76,-60.54 95.66,26.99 35.18,140.8 259.38,-23.79l-27.9 -119.52 55.79 -70.2 148.18 24.8 75.52 -168.3c-32,-29.02 -42.72,-36.95 -84.89,-62.25l36.5 -121.21 93.85 -21c42.25,-70.67 11.49,-118.16 23.71,-200.98l-126.16 -24.26 -23.19 -107.46 75.47 -51.26 -9.03 -92.25 -70.62 -98.47c-192.84,-0.41 -194.94,55.35 -171.96,-167.68 -22.54,-17.56 -48.6,-36.77 -78.45,-54.4 -54.19,-33.95 -62.94,-39.45 -120.26,-18.92 -17.95,38.51 -8.19,70.68 -80.75,60.98 -59.83,-7.99 -69.57,-17.72 -76.81,-63.58l-36.28 -81.79 -176.43 2.88 -29.87 95.81c-26.03,22.64 -6.5,16.28 -44.81,34.42 -0.17,0.08 -47.36,12.07 -47.95,12.04 -53.89,-3.23 -44.99,-14.63 -60.77,-61.08l-112.19 3.39 -79.35 61.71c-3.85,75.36 39.82,131.61 -16.68,171.92 -70.58,50.34 -70.05,5.67 -164.22,4.66l-71.17 98.11 -4.06 91.04c216.75,116.57 -74.15,192.05 -74.67,192.27l1.47 179.78c83.69,41.23 102.31,-4.8 134.53,78.19 33.25,85.68 -13.42,89.24 -65.33,135.12l13.42 71.26 57.68 107.52 143.04 -26.28 67.63 60.13 -33.81 123.24c53.43,43.2 74.89,66.43 162.24,89.65 56.24,-24.22 145.55,-159.1 202.74,-3.7 -62.25,49.95 -2150.04,26.45 -2423.94,22.25l191.5 -766.46c16.15,-75.28 31.7,-126.19 51.75,-199.09l36.86 -151.9c16.82,-41.22 4.68,-19.77 26.84,-44.24l46.93 -300.4c-16.6,-92.93 -23.55,-31.33 26.35,-124.07 -174.34,44.89 -239.24,-61.57 -430.96,-13.15 -2.85,-86.71 14.24,-126.71 42.14,-210.61l233.48 0.4c-11.95,-78.98 24.69,-24.5 -31.38,-72.03l-178.57 7.27c-4.35,-107.29 42.29,-119.97 29.56,-210.16 -9.09,-64.44 8.34,-12.91 -19.95,-50.06 -69.92,81.35 -104.98,309.79 -123.82,433.82z"/>
   <path class="fil8" d="M5494.49 4278.74c-144.41,31.71 -411.37,19.52 -569.81,11.61 -51.7,-10.95 9.04,-38.1 -172.22,-38.1l-25.4 -71.82 -292.38 0.27 0.84 -598.23c-230.11,58.65 -1813.52,-30.15 -1915.52,31.41 -90.2,80.12 -59.09,246.94 -59.88,401.52 -1.03,203.48 -32.28,294.2 181.71,295.86l2620.89 8.19c97.66,0.72 177.11,16.05 231.77,-40.71z"/>
   <path class="fil9" d="M6179.68 2563.23c2.45,60.94 22.2,73 29.88,143.72 18.48,170.33 1.33,1205.6 -13.14,1240.71 -67.12,194.36 11.96,191.23 -142.37,247.96 -5.08,1.87 -10.84,3.45 -15.91,5.26l-78.5 29.64c-3.75,-4.1 -8.91,-9.85 -11.31,-12.26l-46.58 -42.69 0.21 109.9 1.22 2674.56c102.09,-8.39 57.61,8.3 76.78,16.27 50.93,21.16 -6.82,6.86 34.28,17.42 52.89,13.59 -10.8,24.68 33.86,-1.26 -14.07,-22.46 -51.46,4.2 35.58,-34.32 38.9,-17.22 44.82,-18.19 81.55,-31.5 0.35,-88.09 9.33,-230.69 0.31,-312.54 -8.41,-76.31 -62.12,-133 -37.01,-273.09 14.07,-78.44 67.6,-127.92 29.57,-266.45l-23.52 -60.41c-23.19,-83.68 -12.41,-143.13 8.62,-208.31 20.61,-63.9 24.81,-40.81 24.02,-141.76 -0.39,-50.2 -5.35,-99.7 -7.49,-149.22 -4.77,-110.63 6.31,-208.65 6.68,-316.84 0.33,-98.64 -23.32,-227.05 -9.53,-319.11 12.13,-80.98 28.12,-50.66 37.11,-127.4 4.57,-39.01 -0.07,-121.82 -0.07,-164.09 60.27,-24.39 88.49,-8.88 129.53,-42.04l34.81 -42.97c73.75,-121.21 -34.38,-157.52 173.6,-191.51l0 -1457.4c-24.92,-81.6 29.44,31.45 -21.19,-25.92l-29.15 -31.47c-33.69,-36.64 -24.22,-27.94 -61.59,-64.77 -82.93,-81.74 -78.16,-21.09 -78.16,-154.35l-162.09 -13.76z"/>
   <path class="fil8" d="M2430.3 6903.92c3.54,4.88 7.31,6.92 8.35,16.05 1.04,9.18 6.28,12.09 7.55,16.55 8.36,29.37 8.09,13.29 12.61,56.25 3.85,36.6 -2.12,88.67 -0.58,127.8 8.72,221.9 174.98,162.9 586.62,162.88 235.27,-0.01 824.54,-28.29 1018.37,14.12l-13.42 -71.26c51.91,-45.88 98.58,-49.44 65.33,-135.12 -32.22,-82.99 -50.84,-36.96 -134.53,-78.19l-1.47 -179.78c0.52,-0.22 291.42,-75.7 74.67,-192.27l4.06 -91.04c-160.25,57.07 -1231.38,14.14 -1498.81,23.24 -25.03,-33.46 -47.26,46.34 -13.3,-64.46 -22.16,24.47 -10.02,3.02 -26.84,44.24l-36.86 151.9c-20.05,72.9 -35.6,123.81 -51.75,199.09z"/>
   <path class="fil5" d="M2458.63 4775.58c0,581.52 -198.43,486.54 1198.75,486.48 276.73,0 230.23,-18.64 230.23,-507.6 0,-210.21 -53.08,-207.28 -251.35,-207.27l-929.36 0.04c-218.63,0.16 -248.27,6.99 -248.27,228.35z"/>
   <path class="fil8" d="M4214.95 4564c-90.54,36.28 -89.63,51.13 -92.21,167.82 -12.83,580.76 -4.38,528.13 294.92,526.94 149.1,-0.59 996.45,18.01 1065.65,-13.02 55.03,-24.68 67.06,-74.61 68.88,-172.71 9.97,-537.29 37.97,-527.79 -289.33,-524.96 -185.16,1.6 -940.69,-27.04 -1047.91,15.93z"/>
   <path class="fil1" d="M5984.59 1054.34c34.14,48.39 118.54,107.73 173.08,127.69 39.26,-43.75 170.85,-139.02 224.41,-161.13 100.15,43.09 154.02,117.71 252.34,160.11 60.6,-57.34 151.78,-135.95 241.68,-162.92l225.04 171.01c54.13,-57.01 172.16,-139.7 231.42,-167.88 97.49,42.94 153.44,118.59 251.25,158.49 221.37,-193.47 225.33,-197.76 444.74,2.95 309.44,-115.11 99.54,-291.01 486.82,-4.34 96.67,-46.13 146.94,-132.81 260.41,-157.4 -247.68,-222.79 -1070.55,-372.04 -1422.11,-375.12 -911.3,-7.97 -1164.77,337.82 -1369.08,408.54z"/>
   <path class="fil0" d="M3428.1 1383.41c-41.69,29.4 -10.22,-24.19 -132.19,54.87 -4.19,2.71 -8.86,6.97 -13.35,9.56 -4.71,2.72 -9.96,5.99 -14.95,8.44l-49.84 16.47c-55.43,19.81 -32.57,-19.04 -51.71,35.55l271.11 0.01 0 141.26c-27.13,21.58 32.63,42.77 -104.9,31.8 184.85,-29.46 68.17,-2.7 103.69,35.85 54.04,46.11 36.18,9.05 79.69,80.3 20.84,29.42 12.57,16.31 27.2,63.88 22.82,74.17 -4.66,96.88 56.11,112.46 75.05,19.25 585.19,-15.71 759.39,6.37 194.86,11.31 617.59,-244.98 803.37,-293.62l-7.82 -380.42c-109.77,37.24 -123.75,154.19 -268.07,93.42 -66.46,72.63 -83.39,134.21 -194.79,148.22 -128.17,16.11 -195.36,-23.99 -234.41,-118.64 -30.71,-21.7 -157.44,-126.75 -179.5,-161.63 -105.67,48.24 -139.83,109.93 -239.56,161.92 -89.9,-28.48 -167.87,-119.01 -253.46,-159.69 -69.41,36.44 -116.19,75.12 -178.46,119.45 -113.55,80.8 -105.21,8.67 -177.55,-5.83z"/>
   <path class="fil3" d="M4063.22 7297.57c-193.83,-42.41 -783.1,-14.13 -1018.37,-14.12 -411.64,0.02 -577.9,59.02 -586.62,-162.88 -1.54,-39.13 4.43,-91.2 0.58,-127.8 -4.52,-42.96 -4.25,-26.88 -12.61,-56.25 -1.27,-4.46 -6.51,-7.37 -7.55,-16.55 -1.04,-9.13 -4.81,-11.17 -8.35,-16.05l-191.5 766.46c273.9,4.2 2361.69,27.7 2423.94,-22.25 -57.19,-155.4 -146.5,-20.52 -202.74,3.7 -87.35,-23.22 -108.81,-46.45 -162.24,-89.65l33.81 -123.24 -67.63 -60.13 -143.04 26.28 -57.68 -107.52z"/>
   <path class="fil8" d="M2830.76 3194.33c174.69,-20.6 1483.4,-26.21 1603.89,7.94l1.48 -95.2 -0.12 -202.22 -4.86 -187.05c-165.6,-32.75 -600.88,-10.88 -794.89,-10.61 -162.76,0.23 -655.26,-44.88 -760.28,20.85 24.98,270.29 23.09,229.11 -45.22,466.29z"/>
   <path class="fil3" d="M2545.75 6508.69c-33.96,110.8 -11.73,31 13.3,64.46 267.43,-9.1 1338.56,33.83 1498.81,-23.24l71.17 -98.11c94.17,1.01 93.64,45.68 164.22,-4.66 56.5,-40.31 12.83,-96.56 16.68,-171.92l79.35 -61.71 -1776.75 -4.16 -19.85 -1.06 -46.93 300.4z"/>
   <path class="fil10" d="M3655.65 7954.27l181.4 53.44c238.29,-59.26 84.73,-36.88 432.86,-36.27 161.94,0.27 323.88,-0.64 485.8,-0.3 320.29,0.66 653.63,7.63 972.6,-5.18l106.82 -166.2c2.8,-3.97 6.07,-8.8 9.16,-12.76l51.88 -54.11 -2653.09 -3.22c111.12,77.24 330.09,127.45 412.57,224.6z"/>
   <path class="fil7" d="M5336.78 1154.16c28.94,-21.95 54.31,-37.63 94.82,-61.11l172.57 134.08c-54.44,50.17 -106.57,91.28 -172.57,130.6l-171.84 -130.6 77.02 -72.97zm-479.89 -0.85c63.34,-41.13 32.58,-37.41 110.04,-58.29 53.41,32.2 129.91,82.17 163.75,136.33l-184.88 123.95c-40.45,-30.12 -28.32,-12.22 -42.34,-47.66l-119.71 -80.51c9.24,-14.28 7.64,-19.25 32.61,-44.14 20.99,-20.92 15.14,-11.83 40.53,-29.68zm-352.77 -56.34l149.45 130.16c-58.65,53.53 -100.16,88.23 -177.2,136.4l-80.02 -73.39 -76.01 -63.01c45.23,-55.73 99.66,-112.16 183.78,-130.16zm-565.23 53.08c43.67,-31.16 48.67,-36.19 98.68,-56.82 51.39,32.8 131.73,90.28 159.23,133.9 -35.26,37.96 -120.62,106.79 -162.18,134.29l-184.65 -134.29 88.92 -77.08zm-405.55 -60.52l182.06 137.6 -184.75 141.77c-5.47,-2.94 -12.15,-7.27 -15.85,-9.77 -3.64,-2.45 -11.09,-6.8 -15.42,-9.85l-141.28 -122.15 175.24 -137.6zm-841.68 277.94c72.21,-61.56 281.97,-246.25 374.31,-273.09 52.63,31.92 129.15,82.69 161.48,132.75 -144.6,156.76 -264.2,160.32 -535.79,140.34zm736.44 15.94c72.34,14.5 64,86.63 177.55,5.83 62.27,-44.33 109.05,-83.01 178.46,-119.45 85.59,40.68 163.56,131.21 253.46,159.69 99.73,-51.99 133.89,-113.68 239.56,-161.92 22.06,34.88 148.79,139.93 179.5,161.63 97.09,-15.62 175.66,-104.74 256.83,-157.44 39.39,17.24 52.25,27.73 89.97,55.12l82.4 72.74c144.32,60.77 158.3,-56.18 268.07,-93.42 51.35,91.9 48.47,619.13 74.41,670.28l-5.92 -356.13 3.84 -321.19c75.24,25.56 128.31,99.91 205.37,129.54 72.19,-30.13 117.19,-78.79 191.51,-122.42l0.02 -14.63 169.65 -13.94 -29.06 -29.49c-51.77,-19.3 -20.53,13.05 -35.66,-51.62 -37.21,33.78 -52.97,-74.57 -32.49,50.5l-1.28 -65.96c-109.11,-38.45 -159.65,-115.2 -262.69,-159.93 -90.14,36.27 -156.26,113.11 -253.41,161.12 -60.95,-61.21 -138.48,-115.65 -211.26,-160.78 -98.25,26.21 -88.31,63.24 -175.1,93.2 -39.77,62.56 -20.71,39.12 -84.4,66.12 -25.66,-22.18 -42.72,-33.87 -64.58,-51.3 -29.42,-23.46 -41.9,-36.15 -58.66,-52.39l-100.13 -61.35c-91.46,37.2 -151.81,127.14 -239.51,166.56 -228.17,-239.04 -238.16,-143.09 -318.03,-110.58 -41.68,54.7 -86.08,75.62 -144.79,110.51l-251.08 -160.38c-94.8,37.03 -148.36,115.6 -252.98,159.52 -45.53,-43.1 -106.38,-82.13 -150.27,-123.07l-82.55 -38.64c-66.67,40.52 -465.45,306.51 -484.49,397.49 79.03,30.91 343.17,21.65 442.66,14.74 132.71,-9.21 181.66,-113.66 295.29,-161.41l129.79 112.85z"/>
   <path class="fil8" d="M4167.48 6623.71c19.13,48.12 22.01,58.32 6.14,124.15 -13.36,163.23 5.97,2.59 32.75,125.87 17.2,79.19 -9.46,62.83 30.81,152.48l101.21 213.37 860.87 5.24c25.66,-122.48 19.45,-172.44 17.7,-295.22 -3.03,-212.29 2.23,-134.05 31.18,-160.11 26.39,-23.77 4.6,60.89 28.48,-18.7 2.4,-8.01 11.44,-5.58 16.14,-9.77l-30.14 -112.62c44.78,31.71 43.63,-11.81 63.27,-35.34 -89.18,-10.54 -254.94,-8.44 -339.06,-1.94 -107.97,8.35 -201.71,49.88 -208.69,50.71 -22.66,2.7 -62.64,0.67 -86.8,0.58 82.12,36.38 401.88,-65.39 190.09,90.21 68.37,107.43 152.42,287.04 -45.21,345.77 -183.76,54.6 -277.76,-120.84 -213.79,-269.79 -39.11,-85.12 -37.71,-28.44 -34.69,-151.07 -615.29,-30.4 -70.94,-60.29 -402.28,-85.41l-17.98 31.59z"/>
   <path class="fil1" d="M3127.4 1058.38c43.89,40.94 104.74,79.97 150.27,123.07 104.62,-43.92 158.18,-122.49 252.98,-159.52l251.08 160.38c58.71,-34.89 103.11,-55.81 144.79,-110.51 -7.66,-51.77 60.78,-164.12 8.28,-313.31 -54.99,-156.24 -120.84,-148.36 -171.92,-225.21 -195.13,-66.49 -356.56,-79.67 -506.85,60.42 -185.39,172.8 -114.38,349.96 -117.35,426.13 -2.03,52.21 9.26,7.23 -11.28,38.55z"/>
   <path class="fil11" d="M4982.63 3951.21c148.92,4.63 299.73,0.72 448.97,0.48 126.32,-0.2 349.61,34.33 445.38,-19.2l-190.16 -569.54 -497.83 -13.44c-47.79,50.29 -185.51,499.81 -206.36,601.7z"/>
   <path class="fil12" d="M5646.84 2983.31l294.19 939.35 15.13 5.9 235.7 -0.58 -7.6 -982.11c-96,-2.9 -191.97,-1.35 -288.03,-1.7 -167.55,-0.61 -252.19,-31 -249.39,39.14z"/>
   <path class="fil13" d="M4436.13 3107.07l-1.48 95.2 0.87 380.2 -0.84 598.23 292.38 -0.27 834.68 1.08 340.01 -5.94c-5.12,-2.34 -13.18,-10.21 -16.09,-5.16l-1144.63 -35.11 18.34 -184.42 -22.17 0.19c-3.67,-4.25 -7.21,-10.77 -8.8,-14.37l-22.35 -1128.35 -0.06 0c-9.17,100.89 -26.58,78.35 -52.41,156.64 -7.74,23.5 -22.1,102.95 -24.6,129.55 -91.81,16.61 -98.01,14.05 -163.14,-29.93 -29.32,18.59 -7.61,-32.11 -29.71,42.46z"/>
   <path class="fil14" d="M1080.64 8112.95c450.79,-29.76 1373.27,-1.39 1922.01,-6.55 284,-2.67 220.49,-20.74 228.72,69.67 7.05,-6.17 16.22,-13.29 21.84,-17.69l45.1 -32.97c170.92,3.6 283.72,-34.6 396.05,-29.81l327.01 19.66c-73.15,-63.81 -115.12,-48.42 -184.32,-107.55l-181.4 -53.44c-117.06,0.64 -284.45,-12.7 -420.81,-13.48 -423.76,-2.45 -252.98,27.45 -782.75,-13.23 -200.34,-15.38 -217.22,-25.91 -241.64,-149.03l-181.88 -22.24c11.8,61.8 21.28,125.82 59.37,174.82 62.55,80.47 -3.21,-43.52 75.42,113.1 101.21,2.8 126.98,23.25 247.08,24.12l-1203.89 -0.73c-106.97,8.73 -102,16.63 -125.91,45.35z"/>
   <path class="fil15" d="M2003.95 6409.56c48.82,-68.25 53.26,-131.93 74.33,-214.92 20.05,-78.97 37.7,-144.18 61.25,-224.94 -79.21,-107.39 -27.37,-59.86 -30.33,-74.39l-1.44 -2344.79c14.47,-105.75 -36.81,-61.24 65.42,-60.81l-150.65 -53.76c-71.85,231.02 -29.96,1160.59 -28.66,1487.48 0.98,246.32 0.12,493.02 -1.02,739.26 -0.97,209.79 -20.26,556.95 11.1,746.87z"/>
   <path class="fil16" d="M4167.48 6623.71l17.98 -31.59c331.34,25.12 -213.01,55.01 402.28,85.41 -3.02,122.63 -4.42,65.95 34.69,151.07 71.15,-109.94 119.93,-84.03 259,-75.98 211.79,-155.6 -107.97,-53.83 -190.09,-90.21 24.16,0.09 64.14,2.12 86.8,-0.58 6.98,-0.83 100.72,-42.36 208.69,-50.71 84.12,-6.5 249.88,-8.6 339.06,1.94 -19.64,23.53 -18.49,67.05 -63.27,35.34l30.14 112.62c-4.7,4.19 -13.74,1.76 -16.14,9.77 -23.88,79.59 -2.09,-5.07 -28.48,18.7 -28.95,26.06 -34.21,-52.18 -31.18,160.11 1.75,122.78 7.96,172.74 -17.7,295.22l-860.87 -5.24 -101.21 -213.37c-40.27,-89.65 -13.61,-73.29 -30.81,-152.48 -26.78,-123.28 -46.11,37.36 -32.75,-125.87l-15.54 94.05c-50.35,19.51 -173.13,20.42 -106.75,113.16 55.79,77.94 95.35,-39.23 129.45,133.47 29.23,147.99 -54.01,86.74 -52.94,181.6 1.04,92.07 101.49,45.99 161.4,44.33 67.99,-63.99 380.49,-29.61 487.59,-29.76 84.48,-0.13 169.11,0.78 253.52,0.35l186.87 5.13c68.04,19.28 -0.06,-19.36 48.74,24.63 80.92,0.62 101.35,39.3 146.39,-5.85 58.43,-58.58 -20.09,-94.21 -50.21,-115.38 17.59,-245.16 58.16,-184.53 102.81,-211.12 16.34,-9.72 85.99,5.43 43.89,-83.85 -25.6,-54.29 -50.88,-30.27 -112.03,-58.7l-37.23 -162.76c40.4,-45.23 44.91,-39.34 76.78,-85.11l-36.26 -37.43c-52.98,28.01 -1180.95,32.82 -1245.25,1.03 -34.27,24.45 -20.7,-41.95 -36.72,60.59 31.24,19.71 15.69,3.38 49.35,7.47z"/>
   <path class="fil11" d="M5646.84 2983.31c-2.8,-70.14 81.84,-39.75 249.39,-39.14 96.06,0.35 192.03,-1.2 288.03,1.7l7.6 982.11 -235.7 0.58c32.21,22.76 -3.86,8.97 48.82,20.52 18.82,4.13 39.22,6.29 58.55,7.02 44.2,1.66 89.35,-3.86 132.89,-8.44 14.47,-35.11 31.62,-1070.38 13.14,-1240.71 -7.68,-70.72 -27.43,-82.78 -29.88,-143.72 -107.04,-56.63 -140.57,-95.48 -325.42,-97.58 -128.17,-1.46 -256.35,1.17 -384.49,-1.03 23.64,93.03 54.49,171.25 84.82,267.01l92.25 251.68z"/>
   <path class="fil17" d="M1838.55 3128.19c77.6,23.96 28.45,29.33 130.69,27.14l-16.42 -153.77 95.67 -7.81c-14.44,-33.13 -26.24,-28.5 -5.3,-88.1 23.49,-66.8 18.95,-41.91 46.31,-22.09 29.01,-24.03 9.67,-5.29 34.74,-39.8 19.96,-27.48 13.33,-27.16 35.32,-54.94 41.45,-52.37 35.2,-51.46 96.57,-41.03 -2.21,-85.33 -26.3,-209.41 28.34,-266.59 50.96,52.43 30.81,122.93 34.93,223.3l470.79 10.69c-76.43,-238.38 -396.61,-427.81 -712.98,-279.72 -116.8,54.68 -206.77,157.44 -255.43,272.57 -44.25,104.71 -75.28,346.99 16.77,420.15z"/>
   <path class="fil18" d="M4759.37 3950.88l-18.34 184.42 1144.63 35.11c2.91,-5.05 10.97,2.82 16.09,5.16l46.58 42.69c2.4,2.41 7.56,8.16 11.31,12.26l78.5 -29.64c5.07,-1.81 10.83,-3.39 15.91,-5.26 154.33,-56.73 75.25,-53.6 142.37,-247.96 -43.54,4.58 -88.69,10.1 -132.89,8.44 -19.33,-0.73 -39.73,-2.89 -58.55,-7.02 -52.68,-11.55 -16.61,2.24 -48.82,-20.52l-15.13 -5.9 -13.8 52.4 -50.25 -42.57c-95.77,53.53 -319.06,19 -445.38,19.2 -149.24,0.24 -300.05,4.15 -448.97,-0.48 -11.1,17.35 -31.33,17.02 -36.83,21.14l-22.99 -43.58c-58.56,31.17 -75.29,26.65 -163.44,22.11z"/>
   <path class="fil11" d="M2256.13 2747.79c-61.37,-10.43 -55.12,-11.34 -96.57,41.03 -21.99,27.78 -15.36,27.46 -35.32,54.94 -25.07,34.51 -5.73,15.77 -34.74,39.8 43.85,131.22 18.36,353.1 8.07,500.89l31.45 18.35 -9.37 -215.1c104.07,-5.92 210.74,-1.52 312.67,-1.74 82.51,-0.18 233.16,-26.29 296.18,30.42 100.11,-114.09 149.23,-336.9 61.69,-501.19l-470.79 -10.69 2.17 219.01c194.97,0.5 260.63,-32.9 298.92,35.6 -76.75,49.67 -252.92,30.11 -354.29,20.47l-10.07 -231.79z"/>
   <path class="fil8" d="M4733.8 2951.01l444.34 -5.9c40.98,15.53 23.91,-3.41 31.43,46.3 63.14,-62.73 149.64,-409.31 185.25,-522.67l-668.47 0.67 7.45 481.6z"/>
   <path class="fil19" d="M2028.57 7756.29l181.88 22.24c24.42,123.12 41.3,133.65 241.64,149.03 529.77,40.68 358.99,10.78 782.75,13.23 136.36,0.78 303.75,14.12 420.81,13.48 -82.48,-97.15 -301.45,-147.36 -412.57,-224.6l-1295.03 2.22c30.58,22.65 -53.64,33.54 80.52,24.4z"/>
   <path class="fil3" d="M4154.85 6555.65c64.3,31.79 1192.27,26.98 1245.25,-1.03 -31.54,-41.87 21.27,-20.27 -146.22,-19.06 -171,-243.36 -66.99,-77.1 -82.64,-199.04 -18.63,-145.02 -94.06,-33.5 -162.07,6.26 -297.16,-92.84 -98.06,-123.59 -211.22,-146.99 -168.74,12.4 11.93,64.74 -166.5,124.87 -167.87,56.56 -134.25,-62.8 -203.72,-47.67 -96.35,20.99 -10.4,104.33 -62.19,181.44 -17,25.33 -72.66,62.94 -84.98,67.15 -70.7,24.12 -28.86,1.4 -70.64,10.87 -5.14,1.16 -11.49,1.98 -16.16,3.32 -4.31,1.24 -10.67,3.84 -14.33,5.16l-24.58 14.72z"/>
   <path class="fil17" d="M7862.82 1987.51c25.9,63.08 -25.14,66.31 208.55,62.97 96.92,-1.38 196.12,-6.25 291.87,5.79 24.04,102.25 33.06,267.85 -7.84,362.21l-311.49 4.11c30.5,106.49 -1.35,76.08 302.48,75.02 126.22,-0.44 253.85,5.91 379.52,-4.96l-1.36 -519.87 -652.97 -1.06c-96.31,-2.79 -151.15,-17.69 -208.76,15.79z"/>
   <path class="fil1" d="M5222.39 1620.34l5.92 356.13c71.08,238.15 360.52,205.57 402.2,1.09 22.87,-112.21 31.85,-617.51 -7.38,-685.92l-0.02 14.63 1.91 76.91c-94.42,47.48 -293.66,234.15 -402.63,237.16z"/>
   <path class="fil12" d="M5265.96 7314.82c-48.8,-43.99 19.3,-5.35 -48.74,-24.63l-186.87 -5.13c-84.41,0.43 -169.04,-0.48 -253.52,-0.35 -107.1,0.15 -419.6,-34.23 -487.59,29.76 217.18,247.94 7.1,141.38 112.35,245.96 57.98,57.62 72.61,-12.79 112.22,-30.09 68.17,-29.76 104.35,-2.09 186.61,11.3 39.01,113.16 -11.13,128.32 122.33,122.5l30.89 -122.73c51.29,-8.05 129.13,-36.95 169.4,-25.09 88.22,26 18.86,91.17 133.98,44.43 91.16,-76.43 -92.78,-22.76 108.94,-245.93z"/>
   <path class="fil1" d="M5938.89 1459.47c0.68,173.2 -32.28,447.73 210.39,445.45 216.51,-2.03 200.44,-217.7 200.44,-382.08 0,-154.83 -4.4,-105.39 -199.98,-253.13 -69.75,29 -211.13,114.29 -210.85,189.76z"/>
   <path class="fil6" d="M2790.19 2715.19c87.54,164.29 38.42,387.1 -61.69,501.19 -64.02,159.15 -377.49,291.07 -599.48,186.42l-31.45 -18.35c-141.02,-46.4 -216.2,-115.73 -259.02,-256.26 -92.05,-73.16 -61.02,-315.44 -16.77,-420.15 48.66,-115.13 138.63,-217.89 255.43,-272.57 316.37,-148.09 636.55,41.34 712.98,279.72zm-978.98 540.63l211.32 180.13 150.65 53.76c429.58,16.84 445.38,-68.32 657.58,-295.38 68.31,-237.18 70.2,-196 45.22,-466.29 -52.07,-69.68 -62.92,-136.46 -128.19,-211.19 -427.86,-489.91 -1258.24,14.16 -974.63,636.62l38.05 102.35z"/>
   <path class="fil3" d="M4729.15 3357.43l375.08 2.88c39.84,-109.58 107.43,-253.77 105.34,-368.9 -7.52,-49.71 9.55,-30.77 -31.43,-46.3l-444.34 5.9 -4.65 406.42z"/>
   <path class="fil20" d="M2183.52 7605.99c-116.02,-67.47 -76.48,-364.99 -70.72,-507.02 55.45,-0.17 146.25,-20.21 184.64,18.21 24.18,-25.76 22.29,41.74 22.87,-52.18 -119.99,-2.66 -292.5,-24.33 -397.11,12.85l-153.04 591.69c500.94,1.54 386.34,17.62 413.36,-63.55z"/>
   <path class="fil8" d="M4737.2 3951.07l22.17 -0.19c88.15,4.54 104.88,9.06 163.44,-22.11l181.42 -568.46 -375.08 -2.88 8.05 593.64z"/>
   <path class="fil7" d="M10009.52 1227.13l67.3 -66.21c36.34,-28.52 45.96,-28.96 74.55,-48.24l7.39 219.83c-85.18,-34.98 -90.03,-46.88 -149.24,-105.38zm-477.08 3.56l161.69 -141.3c66.13,26.78 152.26,89.81 186.01,137.74 -57.74,58.5 -111.78,99.24 -181.95,128.72l-165.75 -125.16zm-438.82 -103.7l13.59 42.96 126.3 -77.3c44.81,29.14 68.26,43.42 104.83,71.66 84.97,65.64 48.6,15.83 60.88,90.97l12.19 35.78 79.37 -24.72 204.52 166.03c114.37,-43.04 155.59,-120.6 256.34,-159.93 135.21,95.53 208.56,186.7 251.18,140.7 35.67,-67.02 29.42,-295.66 6.53,-374.52l-27.19 -7.13c-68.77,3.16 12.05,-15.06 -39.28,6.03 -24.71,10.16 -121.91,106.9 -211.27,143.75l-207.43 -160.71c-112.04,26.44 -163.38,114.1 -258.34,158.07 -147.24,-110.62 -251.3,-243.26 -372.22,-51.64z"/>
   <path class="fil3" d="M5188.99 3349.51l497.83 13.44 -131.95 -403.94c-80.96,-21.63 -166.05,-21.37 -247.36,0 -40.28,55.61 -117.55,314.89 -118.52,390.5z"/>
   <path class="fil21" d="M3231.37 8176.07c-8.23,-90.41 55.28,-72.34 -228.72,-69.67 -548.74,5.16 -1471.22,-23.21 -1922.01,6.55 8.89,37.7 8.6,32.73 25.66,55.48l2125.07 7.64z"/>
   <path class="fil3" d="M5510.17 7230.58l-75.52 168.3 -148.18 -24.8 -55.79 70.2 27.9 119.52c-224.2,164.59 -163.72,50.78 -259.38,23.79 -89.12,-25.14 -89.28,11.43 -105.76,60.54l819.78 21.94 -19.58 -84.38c-172.78,-83 -77.29,-8.7 -105.1,-147.36 -14.82,-73.84 -79.62,-57.2 -26.46,-144.18 69.35,-113.42 -72.86,83.03 20.59,-24.33l-0.72 -66.56c-123.1,8.15 61.33,-22.97 -38.27,6.65 -5.05,1.5 -28.11,16.17 -33.51,20.67z"/>
   <path class="fil1" d="M8114.16 1904.71l127.7 -49.41c5.2,-1.39 11.16,-2.14 16.03,-3.69 4.59,-1.46 10.47,-3.16 14.74,-4.88l96.48 -95.19 23.3 -225.6c-1.01,-6.03 -3.91,-13.72 -4.97,-18.58l-14.04 -36.01c-247.65,-34.01 -107.35,31.55 -249.15,59.05 22.67,-95.49 -22.12,-60.75 78.36,-72.35l-30.44 -87c-36.2,-40.11 -36.76,-49.64 -96.6,-76.68l-3.11 566.42c17.43,48.46 -12.69,32 41.7,43.92z"/>
   <path class="fil22" d="M5895.33 7072.28l-6.37 173.67c124.23,-6.74 150.89,22.36 129.46,150.39 -35.7,27 -49.19,42.63 -115.07,35.42 -11.86,188.46 -14.11,115.91 -116.19,172.9 103.76,-8.78 104.41,0.8 149.59,60.38 52.25,-137.9 75.96,-4.79 157.95,-93.55 56.68,-61.36 12.45,-64.77 116.78,-64.41 -46.56,-99.04 -16.02,-111.61 41.32,-176.49 -81.68,-42.03 -43.51,-76.23 -76.97,-131.79 -37.69,-62.57 -69.29,2.34 -82.83,-134.99 -113.09,31.41 -111.05,19.35 -169.75,-44.72 -8.54,13.89 -27.84,53.06 -27.92,53.19z"/>
   <path class="fil3" d="M2129.02 3402.8c221.99,104.65 535.46,-27.27 599.48,-186.42 -63.02,-56.71 -213.67,-30.6 -296.18,-30.42 -101.93,0.22 -208.6,-4.18 -312.67,1.74l9.37 215.1z"/>
   <path class="fil23" d="M6651.24 1301.54c-0.15,184.72 4.81,374.99 214.98,364.03 174.25,-9.09 222.86,-183.54 186.56,-364.43 -45.77,24.99 -154.52,116.09 -190.36,119.82 -53.65,5.58 -130.86,-84.69 -211.18,-119.42z"/>
   <path class="fil24" d="M5787.16 7604.66c102.08,-56.99 104.33,15.56 116.19,-172.9l-63.88 -41.25c-15.04,-99.8 -10.48,-100.45 49.49,-144.56l6.37 -173.67c-81.84,11.54 -47.12,19.69 -109.11,-7.74 -92.69,151.53 -78.61,87.82 -103.94,133.48 -2.28,4.11 -4.44,9.9 -6.37,14.43 -1.96,4.62 -6,32.05 -12.76,51.62 -20.74,60.09 11.49,32.86 -54.37,75.07 71,46.37 86.51,77.3 40.82,159.32 154.8,19.93 92.18,113.48 137.56,106.2z"/>
   <polygon class="fil24" points="2533.99,6203.6 2462.17,6131.66 2163.62,6132.88 2096.43,6381.92 2495.73,6382.22 "/>
   <path class="fil25" d="M8172.17 1371.05l30.44 87c-100.48,11.6 -55.69,-23.14 -78.36,72.35 141.8,-27.5 1.5,-93.06 249.15,-59.05l14.04 36.01c1.06,4.86 3.96,12.55 4.97,18.58l-23.3 225.6 -96.48 95.19c-4.27,1.72 -10.15,3.42 -14.74,4.88 -4.87,1.55 -10.83,2.3 -16.03,3.69l-127.7 49.41 374.46 -1.37 0.14 -605.68c-185.51,85.97 -113.58,189.59 -316.59,73.39z"/>
   <path class="fil7" d="M10060.59 7225.7c28.79,43.15 -9.79,25.91 59.96,36.22l675.96 -1.05c133.77,0.04 267.54,0.08 401.32,0.02 159.45,-0.08 295.61,27.11 343.91,-35.19 -57.66,-38.31 -96.4,-28.09 -174.79,-27.06 -235.12,3.08 -1233.75,-26.91 -1306.36,27.06z"/>
   <path class="fil26" d="M5494.49 4278.74c105.04,-24.14 -38.61,23.89 33.71,-4.87l33.54 -92.36 -834.68 -1.08 25.4 71.82c181.26,0 120.52,27.15 172.22,38.1 158.44,7.91 425.4,20.1 569.81,-11.61z"/>
   <path class="fil17" d="M8015.7 2359.56l294.3 -0.68 2.55 -232.52 -393.08 -13.77c25.45,88.23 62.54,173.17 96.23,246.97z"/>
   <path class="fil27" d="M2691.66 1367.47c271.59,19.98 391.19,16.42 535.79,-140.34 -32.33,-50.06 -108.85,-100.83 -161.48,-132.75 -92.34,26.84 -302.1,211.53 -374.31,273.09z"/>
   <polygon class="fil3" points="2112.4,6682.06 2428.24,6678.47 2479.37,6446.75 2115.69,6444.58 "/>
   <path class="fil28" d="M7903.32 7666.32l755.38 -0.51c-173.24,-167.46 -211.25,-130.7 -523.52,-130.86 -115.91,-0.06 -173.87,74 -231.86,131.37z"/>
   <path class="fil22" d="M1838.55 3128.19c42.82,140.53 118,209.86 259.02,256.26 10.29,-147.79 35.78,-369.67 -8.07,-500.89 -27.36,-19.82 -22.82,-44.71 -46.31,22.09 -20.94,59.6 -9.14,54.97 5.3,88.1l-95.67 7.81 16.42 153.77c-102.24,2.19 -53.09,-3.18 -130.69,-27.14z"/>
   <path class="fil3" d="M2183.52 7605.99c40.18,-51.42 116.02,-407.08 113.92,-488.81 -38.39,-38.42 -129.19,-18.38 -184.64,-18.21 -5.76,142.03 -45.3,439.55 70.72,507.02z"/>
   <path class="fil29" d="M4456.63 1429.19c39.05,94.65 106.24,134.75 234.41,118.64 111.4,-14.01 128.33,-75.59 194.79,-148.22l-82.4 -72.74c-37.72,-27.39 -50.58,-37.88 -89.97,-55.12 -81.17,52.7 -159.74,141.82 -256.83,157.44z"/>
   <path class="fil30" d="M4436.01 2904.85l0.12 202.22c22.1,-74.57 0.39,-23.87 29.71,-42.46 65.13,43.98 71.33,46.54 163.14,29.93 2.5,-26.6 16.86,-106.05 24.6,-129.55 25.83,-78.29 43.24,-55.75 52.41,-156.64l-34.77 -73.67 -206.07 150.37c-3.34,2.04 -12.12,13.89 -14.55,9.6 -2.48,-4.4 -9.77,6.74 -14.59,10.2z"/>
   <path class="fil3" d="M2342.82 6980.46l49.22 -193.92c-16.52,-32.66 16.68,-41.41 -127.3,-42.02 -50.79,-0.22 -106.2,2.24 -157.39,3.39l0.57 243.58 234.9 -11.03z"/>
   <path class="fil31" d="M4846.53 7034.35c-263.09,37.75 -205.65,-183.62 -120.42,-219.83 127.88,-54.32 227.11,68.17 120.42,219.83zm-224.1 -205.75c-63.97,148.95 30.03,324.39 213.79,269.79 197.63,-58.73 113.58,-238.34 45.21,-345.77 -139.07,-8.05 -187.85,-33.96 -259,75.98z"/>
   <path class="fil27" d="M5222.39 1620.34c108.97,-3.01 308.21,-189.68 402.63,-237.16l-1.91 -76.91c-74.32,43.63 -119.32,92.29 -191.51,122.42 -77.06,-29.63 -130.13,-103.98 -205.37,-129.54l-3.84 321.19z"/>
   <path class="fil24" d="M2188.07 6071.07l272.89 0.03 2.73 -210.24 -233.48 -0.4c-27.9,83.9 -44.99,123.9 -42.14,210.61z"/>
   <path class="fil32" d="M2457.95 5795.81l-204.21 0.29 178.57 -7.27c56.07,47.53 19.43,-6.95 31.38,72.03l152.11 0.15 -37.57 205.5 -117.27 4.59 -272.89 -0.03c191.72,-48.42 256.62,58.04 430.96,13.15 -49.9,92.74 -42.95,31.14 -26.35,124.07l19.85 1.06c19.6,-138.11 169.95,-585.84 136.62,-668.58 -76.95,23.4 -59.79,64.46 -103.03,253.3l-188.17 1.74z"/>
   <path class="fil33" d="M3515.65 1797.52c-43.51,-71.25 -25.65,-34.19 -79.69,-80.3 -140.72,1.22 -236.42,108.32 -145.93,213.72 33.51,39.05 97.37,60.95 166.5,27.9 60.79,-29.07 61.12,-79.07 59.12,-161.32z"/>
   <path class="fil34" d="M8584.84 1227.13c35.02,40.27 119.21,97.39 162.87,129.72 68.07,-32.53 123.92,-73.32 182.83,-129.72 -37.97,-53.92 -122.81,-106.79 -177.75,-138.15 -55.19,35.42 -131.29,79.87 -167.95,138.15z"/>
   <path class="fil1" d="M8155.15 4407.77c24.1,84.05 65.48,129.03 127.88,193.66 52.15,-36.25 104.05,-104.14 137.75,-167.41 -43.8,-76.69 -70.94,-90.46 -106,-177.78 -108.28,52.87 -67.71,75.23 -159.63,151.53z"/>
   <path class="fil1" d="M8158.07 3487.16c25.5,44.24 85.12,125.56 124.96,162 48.21,-32.45 105.58,-105.64 138.33,-166.59 -30.11,-48.41 -81.91,-138.45 -135.09,-177.25 -38.92,47.83 -105.65,110.33 -128.2,181.84z"/>
   <path class="fil35" d="M8221.69 6905.92c42.94,54.56 40.21,49.38 89.47,73.96 34.76,-85.4 63.56,-87.18 108.05,-176.62 -27.62,-43.3 -39.51,-65.93 -62.31,-95.71l-73.87 -72.95c-43.77,43.52 -104.69,119.87 -124.96,168.66 16.19,37.05 40.05,72.7 63.62,102.66z"/>
   <path class="fil35" d="M8158.69 6338.59c37.92,62.38 81.49,111.22 118.3,168.71 72.78,-56.57 88.54,-95.31 147.69,-169.77 -34.48,-61.75 -90.28,-132.03 -140.19,-182.1 -41.89,47.38 -98.03,113.69 -125.8,183.16z"/>
   <path class="fil35" d="M3358.1 1227.13l141.28 122.15c4.33,3.05 11.78,7.4 15.42,9.85 3.7,2.5 10.38,6.83 15.85,9.77l184.75 -141.77 -182.06 -137.6 -175.24 137.6z"/>
   <path class="fil1" d="M6682.28 1227.13c45.87,45.7 114.38,92.21 164.48,128.98 63.11,-26.17 129.14,-75.26 182.28,-128.98l-174.7 -142.63c-60.54,48.01 -132.29,85 -172.06,142.63z"/>
   <path class="fil1" d="M7627.63 1218.78l169.42 137.64c64.77,-27.09 129.52,-74.67 181.89,-129.29 -28.91,-42.62 -133.78,-115.16 -176.69,-139.21l-174.62 130.86z"/>
   <path class="fil17" d="M8158.43 5388.11c36.94,59.33 81.08,115.82 116.3,170.11 64.2,-43.91 103.38,-105.34 150.54,-169.86l-136.58 -184.5c-57.26,71.05 -100.77,108.4 -130.26,184.25z"/>
   <path class="fil28" d="M9698.19 1355.85c70.17,-29.48 124.21,-70.22 181.95,-128.72 -33.75,-47.93 -119.88,-110.96 -186.01,-137.74l-161.69 141.3 165.75 125.16z"/>
   <path class="fil25" d="M8158.01 5852.79c29.54,70.42 76.86,117.61 125.02,172.54 57.8,-33.57 107.07,-113.48 136.15,-172.54 -29.44,-42.83 -39.96,-62.2 -64.11,-94.04l-72.04 -72.37c-44.1,38.41 -105.11,119.83 -125.02,166.41z"/>
   <path class="fil27" d="M3849.97 1227.13l184.65 134.29c41.56,-27.5 126.92,-96.33 162.18,-134.29 -27.5,-43.62 -107.84,-101.1 -159.23,-133.9 -50.01,20.63 -55.01,25.66 -98.68,56.82l-88.92 77.08z"/>
   <path class="fil35" d="M8157.02 3001.36c19.94,54.34 17.2,41.87 55.02,91.79 43.61,57.58 37.6,56.83 100.64,86.87 31.78,-81.81 68.09,-109.16 110.99,-178.31l-129.38 -157.37c-2.13,-1.95 -7.35,-6.39 -11.26,-9.29 -42.41,43.12 -100.82,119.45 -126.01,166.31z"/>
   <path class="fil27" d="M8158.1 7289.06c33.59,58.81 82.09,117.2 118.23,167.96 64.4,-45.97 93.34,-97.19 148.79,-168.96 -38.49,-73 -90.09,-116.16 -134.76,-177.98 -49.29,62.79 -98.66,96.43 -132.26,178.98z"/>
   <path class="fil31" d="M2256.13 2747.79l10.07 231.79c101.37,9.64 277.54,29.2 354.29,-20.47 -38.29,-68.5 -103.95,-35.1 -298.92,-35.6l-2.17 -219.01c-4.12,-100.37 16.03,-170.87 -34.93,-223.3 -54.64,57.18 -30.55,181.26 -28.34,266.59z"/>
   <path class="fil1" d="M8158.89 3951.83c26.2,71.1 81.75,141.91 152.33,178.67 34.52,-92.08 62.28,-83.29 107.97,-178.67l-136.16 -165.85c-43.15,38.37 -101.98,119.21 -124.14,165.85z"/>
   <path class="fil17" d="M7159.19 1227.13c54.9,51.15 104.28,95.37 173.37,129.81 65.02,-37.59 116.21,-80.67 170.17,-129.81l-170.17 -133.38c-44.12,23.47 -62.99,35.02 -95.16,59.43l-78.21 73.95z"/>
   <path class="fil36" d="M7717.41 7670.19c110.58,-1 150.16,-59.19 217.61,-116.72 128.9,-109.94 89.24,-56.96 272.15,-86.46 -23.39,-28.71 -76.6,-113.26 -111,-155.15 -93.66,36.43 -308.96,283.23 -378.76,358.33z"/>
   <path class="fil29" d="M8109.44 1227.13l173.59 129.32c61.8,-29 118.99,-81.63 170.58,-129.32 -60.73,-77.79 -90.05,-76.7 -170.58,-133.81l-173.59 133.81z"/>
   <path class="fil27" d="M5259.76 1227.13l171.84 130.6c66,-39.32 118.13,-80.43 172.57,-130.6l-172.57 -134.08c-40.51,23.48 -65.88,39.16 -94.82,61.11l-77.02 72.97z"/>
   <path class="fil17" d="M6209.43 1227.13c56.02,51.93 101.55,94.13 172.65,128.88 67.26,-38.79 114.12,-78.75 170.38,-128.88l-170.38 -134.91 -162.12 123.26c-2.31,2.35 -7.26,7.57 -10.53,11.65z"/>
   <path class="fil34" d="M8158.26 4902.31c28.47,76.39 82.41,142.2 155.21,178.57 32.43,-88.51 48.59,-81.34 99.91,-157.45l-130.35 -187.57c-44.72,40.6 -102.4,117.37 -124.77,166.45z"/>
   <path class="fil37" d="M4431.15 2717.8l4.86 187.05c4.82,-3.46 12.11,-14.6 14.59,-10.2 2.43,4.29 11.21,-7.56 14.55,-9.6l206.07 -150.37 34.77 73.67 0.06 0 -9.04 -230.99c-63.46,0 -49.32,-8.6 -95.76,15.88 -31.02,16.36 0.51,0.39 -34.63,30.18 -89.79,76.13 -79.67,62.74 -47.92,119.8 -99.36,-2.21 -34.14,16.4 -87.55,-25.42z"/>
   <path class="fil15" d="M2342.82 6980.46l-234.9 11.03 -0.57 -243.58c51.19,-1.15 106.6,-3.61 157.39,-3.39 143.98,0.61 110.78,9.36 127.3,42.02l7.82 -51.9 -393.4 3.79c-26.83,88.62 -66.71,185.24 -58.21,269.32 76.31,-3.15 133.96,-1.86 209.64,0.85 170.02,6.12 150.06,9.95 184.93,-28.14z"/>
   <path class="fil38" d="M4846.53 7034.35c106.69,-151.66 7.46,-274.15 -120.42,-219.83 -85.23,36.21 -142.67,257.58 120.42,219.83z"/>
   <path class="fil39" d="M5528.2 4273.87c100.89,42.58 22.03,52.43 167.06,34.8 72.73,-8.84 150.17,-6.63 206.7,-23.2l-0.21 -109.9 -340.01 5.94 -33.54 92.36z"/>
   <path class="fil38" d="M5307.51 2959.01c81.31,-21.37 166.4,-21.63 247.36,0l-115.03 -377.16 -132.33 377.16z"/>
   <path class="fil27" d="M4856.89 1153.31l46.57 154.33c14.02,35.44 1.89,17.54 42.34,47.66l184.88 -123.95c-33.84,-54.16 -110.34,-104.13 -163.75,-136.33 -77.46,20.88 -46.7,17.16 -110.04,58.29z"/>
   <path class="fil29" d="M5763.72 1248.21l29.06 29.49c39.83,29.1 71.46,52.05 103.5,78.53 65.14,-27.23 128.74,-74.05 182.18,-129.1 -33.06,-48.75 -110.54,-102.91 -156.43,-134.13 -11.05,69.31 8.44,23.64 -29.16,67.34 -21.19,24.63 -1.01,1.09 -37.82,26.5 -36.1,24.92 -52.57,36.22 -91.33,61.37z"/>
   <path class="fil28" d="M9107.21 1169.95l6.84 16.53 176.91 117.08c41.15,-12.48 19.41,-8.22 56.22,-26.33 41.69,-20.51 12.39,-13.42 52.04,-21.95 -12.28,-75.14 24.09,-25.33 -60.88,-90.97 -36.57,-28.24 -60.02,-42.52 -104.83,-71.66l-126.3 77.3z"/>
   <path class="fil25" d="M4396.35 1290.14l80.02 73.39c77.04,-48.17 118.55,-82.87 177.2,-136.4l-149.45 -130.16c-21.04,78.05 -16.72,37.5 -53.85,100.05 -16.25,27.36 -14.91,34.76 -26.33,55.74 -18.06,33.19 -7.79,15.53 -27.59,37.38z"/>
   <polygon class="fil40" points="2460.96,6071.1 2578.23,6066.51 2615.8,5861.01 2463.69,5860.86 "/>
   <path class="fil41" d="M5965.2 7331.3c-56.02,97.85 -72.8,23.27 -77.3,21.13 92.39,-91.75 55.17,-35.63 77.3,-21.13zm-61.85 100.46c65.88,7.21 79.37,-8.42 115.07,-35.42 21.43,-128.03 -5.23,-157.13 -129.46,-150.39 -59.97,44.11 -64.53,44.76 -49.49,144.56l63.88 41.25z"/>
   <path class="fil42" d="M5579.34 6825.14c-41.12,-89.97 -22.28,-66.6 -33.75,-159.72 0,-0.04 -12.55,-61.04 -13.15,-62.5 -24.6,-59.84 1.49,-18.08 -36.01,-53.01l9.03 92.25 -75.47 51.26 23.19 107.46 126.16 24.26z"/>
   <path class="fil16" d="M5510.17 7230.58c5.4,-4.5 28.46,-19.17 33.51,-20.67 99.6,-29.62 -84.83,1.5 38.27,-6.65l-2.81 -23.42c-30.11,-28.75 -15.65,28.65 -27.98,-58.56 -2.71,-19.12 3.3,-74.53 4.47,-95.16l-93.85 21 -36.5 121.21c42.17,25.3 52.89,33.23 84.89,62.25z"/>
   <path class="fil36" d="M10009.52 1227.13c59.21,58.5 64.06,70.4 149.24,105.38l-7.39 -219.83c-28.59,19.28 -38.21,19.72 -74.55,48.24l-67.3 66.21z"/>
   <path class="fil43" d="M9290.96 1303.56l-176.91 -117.08 -55.28 18.1c27.61,61.46 28.98,52.38 83.33,92.4 67.32,49.58 36.25,45.72 117.95,58.26l30.91 -51.68z"/>
   <path class="fil44" d="M8283.03 2699.96c42.45,-28.46 79.27,-75.25 109.77,-138.24l-214.62 -0.43c21.7,53.77 55.86,92.48 104.85,138.67z"/>
   <path class="fil45" d="M2112.4 6682.06l3.29 -237.48c-62.14,4.92 -42.61,22.19 -59.86,87.86 -15.19,57.78 -23.86,87.08 -32.8,146.56l89.37 3.06z"/>
   <path class="fil46" d="M4396.35 1290.14c19.8,-21.85 9.53,-4.19 27.59,-37.38 11.42,-20.98 10.08,-28.38 26.33,-55.74 37.13,-62.55 32.81,-22 53.85,-100.05 -84.12,18 -138.55,74.43 -183.78,130.16l76.01 63.01z"/>
   <path class="fil47" d="M5728.06 1196.59c15.13,64.67 -16.11,32.32 35.66,51.62 38.76,-25.15 55.23,-36.45 91.33,-61.37 36.81,-25.41 16.63,-1.87 37.82,-26.5 37.6,-43.7 18.11,1.97 29.16,-67.34 -66.58,0.23 -37.09,5.75 -90.48,47.15 -4.29,3.33 -48.76,36.65 -49.41,37.02 -44.7,26.2 -5.9,11.91 -54.08,19.42z"/>
   <path class="fil48" d="M4791.83 1114.74l-207.64 -37.57c16.76,16.24 29.24,28.93 58.66,52.39 21.86,17.43 38.92,29.12 64.58,51.3 63.69,-27 44.63,-3.56 84.4,-66.12z"/>
   <path class="fil49" d="M9041.65 1136.88c-86.82,-21.3 -132.67,-73.37 -231.45,-108.2 44.11,60.7 130.01,123.84 195.39,153.47l36.06 -45.27z"/>
   <path class="fil50" d="M5055.14 6210.44l-157.56 -2.6c7.24,45.86 16.98,55.59 76.81,63.58 72.56,9.7 62.8,-22.47 80.75,-60.98z"/>
   <path class="fil51" d="M4903.46 1307.64l-46.57 -154.33c-25.39,17.85 -19.54,8.76 -40.53,29.68 -24.97,24.89 -23.37,29.86 -32.61,44.14l119.71 80.51z"/>
   <path class="fil50" d="M4655 6224.74c-4.77,-2.49 -10.76,-6.27 -14.38,-7.33l-139.15 -7.29c15.78,46.45 6.88,57.85 60.77,61.08 0.59,0.03 47.78,-11.96 47.95,-12.04 38.31,-18.14 18.78,-11.78 44.81,-34.42z"/>
   <polygon class="fil52" points="2533.99,6203.6 2560.9,6132.91 2462.17,6131.66 "/>
   <path class="fil45" d="M5887.9 7352.43c4.5,2.14 21.28,76.72 77.3,-21.13 -22.13,-14.5 15.09,-70.62 -77.3,21.13z"/>
  </g>
 </g>
</svg>
